<svg xmlns="http://www.w3.org/2000/svg" xmlns:xlink="http://www.w3.org/1999/xlink" width="500" zoomAndPan="magnify" viewBox="0 0 375 374.999991" height="500" preserveAspectRatio="xMidYMid meet" version="1.2"><defs><clipPath id="2432f93563"><path d="M 141.535156 165.636719 L 353.949219 165.636719 L 353.949219 297.828125 L 141.535156 297.828125 Z M 141.535156 165.636719 "/></clipPath><clipPath id="9f123924c3"><path d="M 21.050781 69.933594 L 239.78125 69.933594 L 239.78125 183.339844 L 21.050781 183.339844 Z M 21.050781 69.933594 "/></clipPath><clipPath id="df722ac400"><path d="M 21.050781 104.277344 L 239.78125 104.277344 L 239.78125 135.871094 L 21.050781 135.871094 Z M 21.050781 104.277344 "/></clipPath><clipPath id="aa764e11f7"><path d="M 141.535156 215.933594 L 353.949219 215.933594 L 353.949219 247.53125 L 141.535156 247.53125 Z M 141.535156 215.933594 "/></clipPath></defs><g id="164778ffdb"><g clip-rule="nonzero" clip-path="url(#2432f93563)"><path style=" stroke:none;fill-rule:nonzero;fill:#c79c79;fill-opacity:1;" d="M 141.535156 165.636719 L 353.765625 165.636719 L 353.765625 297.828125 L 141.535156 297.828125 Z M 141.535156 165.636719 "/></g><g clip-rule="nonzero" clip-path="url(#9f123924c3)"><path style=" stroke:none;fill-rule:nonzero;fill:#7a442c;fill-opacity:1;" d="M 21.050781 69.933594 L 239.886719 69.933594 L 239.886719 183.339844 L 21.050781 183.339844 Z M 21.050781 69.933594 "/></g><g style="fill:#69331b;fill-opacity:0.4;"><g transform="translate(158.070346, 293.829148)"><path style="stroke:none" d="M 81.671875 -71.09375 L 84.359375 -71.09375 L 74.328125 -87.390625 L 74.328125 -125.359375 L 120.890625 -125.359375 L 120.890625 0 L 73.78125 0 L 41.1875 -51.9375 L 38.328125 -51.9375 L 48.53125 -35.453125 L 48.53125 0 L 1.96875 0 L 1.96875 -125.359375 L 46.75 -125.359375 Z M 81.671875 -71.09375 "/></g></g><g style="fill:#ffffff;fill-opacity:1;"><g transform="translate(147.081522, 295.96516)"><path style="stroke:none" d="M 81.671875 -71.09375 L 84.359375 -71.09375 L 74.328125 -87.390625 L 74.328125 -125.359375 L 120.890625 -125.359375 L 120.890625 0 L 73.78125 0 L 41.1875 -51.9375 L 38.328125 -51.9375 L 48.53125 -35.453125 L 48.53125 0 L 1.96875 0 L 1.96875 -125.359375 L 46.75 -125.359375 Z M 81.671875 -71.09375 "/></g></g><g style="fill:#ffffff;fill-opacity:0.302;"><g transform="translate(58.909945, 168.914803)"><path style="stroke:none" d="M 73.5 -102.484375 L 106.875 -102.484375 L 124.734375 -51.390625 L 140.984375 -102.484375 L 181.984375 -102.484375 L 148.015625 0 L 102.34375 0 L 85.0625 -47.578125 L 82.859375 -47.578125 L 89.015625 -30.75 L 78.1875 0 L 32.9375 0 L -1.03125 -102.484375 L 39.96875 -102.484375 L 56.359375 -51.390625 Z M 73.5 -102.484375 "/></g></g><g style="fill:#ffffff;fill-opacity:1;"><g transform="translate(47.943616, 169.489523)"><path style="stroke:none" d="M 73.5 -102.484375 L 106.875 -102.484375 L 124.734375 -51.390625 L 140.984375 -102.484375 L 181.984375 -102.484375 L 148.015625 0 L 102.34375 0 L 85.0625 -47.578125 L 82.859375 -47.578125 L 89.015625 -30.75 L 78.1875 0 L 32.9375 0 L -1.03125 -102.484375 L 39.96875 -102.484375 L 56.359375 -51.390625 Z M 73.5 -102.484375 "/></g></g><g clip-rule="nonzero" clip-path="url(#df722ac400)"><path style=" stroke:none;fill-rule:nonzero;fill:#7a442c;fill-opacity:1;" d="M 21.050781 104.277344 L 239.75 104.277344 L 239.75 135.871094 L 21.050781 135.871094 Z M 21.050781 104.277344 "/></g><g style="fill:#ffffff;fill-opacity:0.4;"><g transform="translate(32.438156, 131.162134)"><path style="stroke:none" d="M 29.78125 -17.546875 C 29.8125 -17.242188 29.734375 -16.988281 29.546875 -16.78125 C 29.359375 -16.570312 29.125 -16.351562 28.84375 -16.125 C 28.5625 -15.90625 28.28125 -15.625 28 -15.28125 C 27.71875 -14.945312 27.5 -14.503906 27.34375 -13.953125 L 23.765625 -1.40625 C 23.628906 -0.957031 23.378906 -0.597656 23.015625 -0.328125 C 22.660156 -0.0546875 22.257812 0.078125 21.8125 0.078125 L 20.703125 0.078125 C 20.285156 0.078125 19.90625 -0.0390625 19.5625 -0.28125 C 19.21875 -0.53125 18.96875 -0.851562 18.8125 -1.25 C 18.570312 -1.882812 18.300781 -2.617188 18 -3.453125 C 17.695312 -4.296875 17.382812 -5.171875 17.0625 -6.078125 C 16.738281 -6.992188 16.421875 -7.890625 16.109375 -8.765625 C 15.804688 -9.640625 15.515625 -10.445312 15.234375 -11.1875 L 12.03125 -1.296875 C 11.914062 -0.878906 11.691406 -0.546875 11.359375 -0.296875 C 11.035156 -0.0546875 10.65625 0.0625 10.21875 0.0625 L 8.875 0.0625 C 8.5 0.0390625 8.15625 -0.0820312 7.84375 -0.3125 C 7.53125 -0.539062 7.304688 -0.84375 7.171875 -1.21875 C 6.890625 -1.96875 6.570312 -2.859375 6.21875 -3.890625 C 5.875 -4.929688 5.515625 -6 5.140625 -7.09375 C 4.765625 -8.1875 4.414062 -9.222656 4.09375 -10.203125 C 3.769531 -11.179688 3.5 -12 3.28125 -12.65625 C 3.070312 -13.3125 2.9375 -13.71875 2.875 -13.875 C 2.675781 -14.457031 2.414062 -14.90625 2.09375 -15.21875 C 1.769531 -15.539062 1.453125 -15.8125 1.140625 -16.03125 C 0.828125 -16.25 0.585938 -16.460938 0.421875 -16.671875 C 0.253906 -16.878906 0.226562 -17.160156 0.34375 -17.515625 C 0.414062 -17.796875 0.65625 -18.007812 1.0625 -18.15625 C 1.46875 -18.3125 1.9375 -18.425781 2.46875 -18.5 C 3.007812 -18.570312 3.515625 -18.613281 3.984375 -18.625 C 4.453125 -18.632812 4.789062 -18.640625 5 -18.640625 C 5.050781 -18.640625 5.132812 -18.640625 5.25 -18.640625 C 5.363281 -18.640625 5.488281 -18.640625 5.625 -18.640625 C 6.019531 -18.640625 6.5 -18.628906 7.0625 -18.609375 C 7.625 -18.597656 8.179688 -18.550781 8.734375 -18.46875 C 9.296875 -18.394531 9.769531 -18.28125 10.15625 -18.125 C 10.539062 -17.976562 10.753906 -17.773438 10.796875 -17.515625 C 10.828125 -17.265625 10.765625 -17.035156 10.609375 -16.828125 C 10.460938 -16.628906 10.3125 -16.40625 10.15625 -16.15625 C 10 -15.914062 9.890625 -15.613281 9.828125 -15.25 C 9.773438 -14.894531 9.84375 -14.4375 10.03125 -13.875 L 11.703125 -8.609375 C 11.847656 -9.085938 12.03125 -9.65625 12.25 -10.3125 C 12.476562 -10.96875 12.710938 -11.65625 12.953125 -12.375 C 13.203125 -13.09375 13.4375 -13.78125 13.65625 -14.4375 C 13.875 -15.09375 14.0625 -15.660156 14.21875 -16.140625 C 14.382812 -16.617188 14.492188 -16.945312 14.546875 -17.125 C 14.703125 -17.570312 14.960938 -17.929688 15.328125 -18.203125 C 15.691406 -18.472656 16.097656 -18.617188 16.546875 -18.640625 C 16.753906 -18.640625 16.96875 -18.640625 17.1875 -18.640625 C 17.40625 -18.640625 17.609375 -18.640625 17.796875 -18.640625 C 18.234375 -18.640625 18.640625 -18.507812 19.015625 -18.25 C 19.390625 -18 19.648438 -17.660156 19.796875 -17.234375 C 19.859375 -17.097656 19.976562 -16.78125 20.15625 -16.28125 C 20.332031 -15.78125 20.546875 -15.1875 20.796875 -14.5 C 21.054688 -13.8125 21.320312 -13.097656 21.59375 -12.359375 C 21.863281 -11.617188 22.117188 -10.925781 22.359375 -10.28125 C 22.597656 -9.644531 22.789062 -9.125 22.9375 -8.71875 C 23.09375 -8.3125 23.171875 -8.109375 23.171875 -8.109375 C 23.410156 -8.929688 23.644531 -9.75 23.875 -10.5625 C 24.113281 -11.375 24.320312 -12.082031 24.5 -12.6875 C 24.6875 -13.300781 24.804688 -13.722656 24.859375 -13.953125 C 25.023438 -14.515625 25.039062 -14.96875 24.90625 -15.3125 C 24.78125 -15.664062 24.59375 -15.957031 24.34375 -16.1875 C 24.101562 -16.414062 23.875 -16.628906 23.65625 -16.828125 C 23.4375 -17.023438 23.328125 -17.273438 23.328125 -17.578125 C 23.328125 -17.910156 23.503906 -18.148438 23.859375 -18.296875 C 24.222656 -18.453125 24.65625 -18.550781 25.15625 -18.59375 C 25.65625 -18.644531 26.082031 -18.671875 26.4375 -18.671875 C 26.644531 -18.671875 26.921875 -18.660156 27.265625 -18.640625 C 27.617188 -18.617188 27.976562 -18.570312 28.34375 -18.5 C 28.71875 -18.425781 29.039062 -18.3125 29.3125 -18.15625 C 29.582031 -18.007812 29.738281 -17.804688 29.78125 -17.546875 Z M 29.78125 -17.546875 "/></g></g><g style="fill:#ffffff;fill-opacity:0.4;"><g transform="translate(74.785293, 131.162134)"><path style="stroke:none" d="M 6.40625 -6.6875 L 11.984375 -6.6875 L 9.640625 -12 C 9.617188 -12.09375 9.585938 -12.175781 9.546875 -12.25 C 9.503906 -12.332031 9.46875 -12.410156 9.4375 -12.484375 L 9.09375 -13.28125 C 8.851562 -12.675781 8.570312 -11.988281 8.25 -11.21875 C 7.925781 -10.445312 7.601562 -9.664062 7.28125 -8.875 C 6.96875 -8.082031 6.675781 -7.351562 6.40625 -6.6875 Z M 19.515625 -4.640625 C 19.742188 -4.066406 20.023438 -3.613281 20.359375 -3.28125 C 20.703125 -2.957031 21.035156 -2.695312 21.359375 -2.5 C 21.679688 -2.300781 21.9375 -2.09375 22.125 -1.875 C 22.3125 -1.65625 22.359375 -1.378906 22.265625 -1.046875 C 22.179688 -0.765625 21.9375 -0.546875 21.53125 -0.390625 C 21.132812 -0.242188 20.671875 -0.128906 20.140625 -0.046875 C 19.609375 0.0234375 19.097656 0.0625 18.609375 0.0625 C 18.117188 0.0703125 17.753906 0.078125 17.515625 0.078125 C 17.234375 0.078125 16.804688 0.0664062 16.234375 0.046875 C 15.671875 0.0351562 15.082031 0 14.46875 -0.0625 C 13.863281 -0.132812 13.328125 -0.242188 12.859375 -0.390625 C 12.398438 -0.546875 12.132812 -0.765625 12.0625 -1.046875 C 11.988281 -1.285156 12.023438 -1.507812 12.171875 -1.71875 C 12.328125 -1.925781 12.503906 -2.144531 12.703125 -2.375 C 12.898438 -2.613281 13.035156 -2.910156 13.109375 -3.265625 C 13.179688 -3.628906 13.101562 -4.085938 12.875 -4.640625 L 12.765625 -4.921875 L 5.671875 -4.921875 L 5.59375 -4.6875 C 5.363281 -4.101562 5.296875 -3.632812 5.390625 -3.28125 C 5.484375 -2.9375 5.640625 -2.648438 5.859375 -2.421875 C 6.078125 -2.203125 6.28125 -1.988281 6.46875 -1.78125 C 6.65625 -1.570312 6.726562 -1.316406 6.6875 -1.015625 C 6.675781 -0.734375 6.519531 -0.515625 6.21875 -0.359375 C 5.914062 -0.210938 5.554688 -0.101562 5.140625 -0.03125 C 4.722656 0.03125 4.316406 0.0625 3.921875 0.0625 C 3.523438 0.0703125 3.222656 0.078125 3.015625 0.078125 C 2.753906 0.0664062 2.398438 0.03125 1.953125 -0.03125 C 1.515625 -0.101562 1.125 -0.21875 0.78125 -0.375 C 0.445312 -0.539062 0.28125 -0.773438 0.28125 -1.078125 C 0.28125 -1.378906 0.382812 -1.628906 0.59375 -1.828125 C 0.800781 -2.035156 1.0625 -2.257812 1.375 -2.5 C 1.6875 -2.738281 1.992188 -3.023438 2.296875 -3.359375 C 2.609375 -3.703125 2.878906 -4.144531 3.109375 -4.6875 L 7.71875 -16.109375 C 7.425781 -16.535156 7.203125 -16.878906 7.046875 -17.140625 C 6.890625 -17.410156 6.847656 -17.707031 6.921875 -18.03125 C 7.015625 -18.34375 7.25 -18.582031 7.625 -18.75 C 8 -18.925781 8.414062 -19.039062 8.875 -19.09375 C 9.34375 -19.15625 9.742188 -19.1875 10.078125 -19.1875 C 10.171875 -19.1875 10.257812 -19.179688 10.34375 -19.171875 C 10.4375 -19.160156 10.507812 -19.15625 10.5625 -19.15625 C 11.46875 -19.082031 12.1875 -18.898438 12.71875 -18.609375 C 13.257812 -18.316406 13.6875 -17.953125 14 -17.515625 C 14.3125 -17.078125 14.566406 -16.585938 14.765625 -16.046875 C 14.960938 -15.515625 15.171875 -14.976562 15.390625 -14.4375 C 15.390625 -14.4375 15.484375 -14.210938 15.671875 -13.765625 C 15.867188 -13.328125 16.113281 -12.75 16.40625 -12.03125 C 16.707031 -11.320312 17.023438 -10.5625 17.359375 -9.75 C 17.703125 -8.9375 18.03125 -8.15625 18.34375 -7.40625 C 18.65625 -6.664062 18.921875 -6.039062 19.140625 -5.53125 C 19.359375 -5.03125 19.484375 -4.734375 19.515625 -4.640625 Z M 19.515625 -4.640625 "/></g></g><g style="fill:#ffffff;fill-opacity:0.4;"><g transform="translate(109.646753, 131.162134)"><path style="stroke:none" d="M 20.875 -17.515625 C 20.894531 -17.234375 20.8125 -17 20.625 -16.8125 C 20.4375 -16.625 20.210938 -16.425781 19.953125 -16.21875 C 19.703125 -16.007812 19.476562 -15.742188 19.28125 -15.421875 C 19.082031 -15.097656 18.984375 -14.664062 18.984375 -14.125 C 18.984375 -13.875 18.984375 -13.425781 18.984375 -12.78125 C 18.984375 -12.132812 18.984375 -11.390625 18.984375 -10.546875 C 18.984375 -9.710938 18.984375 -8.875 18.984375 -8.03125 C 18.984375 -7.195312 18.984375 -6.453125 18.984375 -5.796875 C 18.984375 -5.148438 18.984375 -4.707031 18.984375 -4.46875 C 18.984375 -3.726562 19.039062 -3.175781 19.15625 -2.8125 C 19.28125 -2.457031 19.398438 -2.160156 19.515625 -1.921875 C 19.628906 -1.691406 19.671875 -1.390625 19.640625 -1.015625 C 19.617188 -0.660156 19.5 -0.40625 19.28125 -0.25 C 19.0625 -0.101562 18.804688 -0.015625 18.515625 0.015625 C 18.222656 0.0546875 17.9375 0.078125 17.65625 0.078125 C 17.582031 0.078125 17.492188 0.078125 17.390625 0.078125 C 17.285156 0.078125 17.175781 0.0703125 17.0625 0.0625 L 16.265625 0.0625 C 15.285156 0.0625 14.46875 -0.328125 13.8125 -1.109375 L 5.140625 -11.53125 C 5.140625 -10.882812 5.140625 -10.191406 5.140625 -9.453125 C 5.140625 -8.722656 5.140625 -8.019531 5.140625 -7.34375 C 5.140625 -6.664062 5.140625 -6.066406 5.140625 -5.546875 C 5.140625 -5.035156 5.140625 -4.675781 5.140625 -4.46875 C 5.140625 -3.914062 5.238281 -3.472656 5.4375 -3.140625 C 5.632812 -2.816406 5.859375 -2.550781 6.109375 -2.34375 C 6.367188 -2.132812 6.59375 -1.929688 6.78125 -1.734375 C 6.96875 -1.535156 7.050781 -1.296875 7.03125 -1.015625 C 7.007812 -0.753906 6.875 -0.546875 6.625 -0.390625 C 6.375 -0.242188 6.066406 -0.132812 5.703125 -0.0625 C 5.347656 0 4.992188 0.0351562 4.640625 0.046875 C 4.296875 0.0664062 4.019531 0.078125 3.8125 0.078125 C 3.550781 0.078125 3.171875 0.0507812 2.671875 0 C 2.171875 -0.0390625 1.707031 -0.140625 1.28125 -0.296875 C 0.863281 -0.453125 0.625 -0.691406 0.5625 -1.015625 C 0.53125 -1.296875 0.609375 -1.535156 0.796875 -1.734375 C 0.984375 -1.929688 1.210938 -2.140625 1.484375 -2.359375 C 1.753906 -2.578125 1.992188 -2.847656 2.203125 -3.171875 C 2.410156 -3.503906 2.515625 -3.9375 2.515625 -4.46875 L 2.515625 -14.125 C 2.515625 -14.65625 2.410156 -15.082031 2.203125 -15.40625 C 1.992188 -15.738281 1.753906 -16.007812 1.484375 -16.21875 C 1.210938 -16.4375 0.984375 -16.644531 0.796875 -16.84375 C 0.609375 -17.039062 0.53125 -17.285156 0.5625 -17.578125 C 0.601562 -17.835938 0.765625 -18.039062 1.046875 -18.1875 C 1.328125 -18.34375 1.660156 -18.453125 2.046875 -18.515625 C 2.429688 -18.578125 2.804688 -18.617188 3.171875 -18.640625 C 3.546875 -18.660156 3.835938 -18.671875 4.046875 -18.671875 C 4.046875 -18.671875 4.179688 -18.671875 4.453125 -18.671875 C 4.722656 -18.671875 5.046875 -18.671875 5.421875 -18.671875 C 5.609375 -18.671875 5.804688 -18.671875 6.015625 -18.671875 C 6.222656 -18.671875 6.421875 -18.671875 6.609375 -18.671875 C 7.648438 -18.671875 8.476562 -18.265625 9.09375 -17.453125 C 9.84375 -16.535156 10.640625 -15.566406 11.484375 -14.546875 C 12.335938 -13.523438 13.179688 -12.515625 14.015625 -11.515625 C 14.859375 -10.523438 15.628906 -9.597656 16.328125 -8.734375 L 16.328125 -14.125 C 16.328125 -14.65625 16.222656 -15.078125 16.015625 -15.390625 C 15.804688 -15.710938 15.566406 -15.984375 15.296875 -16.203125 C 15.023438 -16.421875 14.796875 -16.625 14.609375 -16.8125 C 14.421875 -17 14.351562 -17.234375 14.40625 -17.515625 C 14.46875 -17.859375 14.707031 -18.101562 15.125 -18.25 C 15.550781 -18.394531 16.015625 -18.488281 16.515625 -18.53125 C 17.015625 -18.582031 17.394531 -18.609375 17.65625 -18.609375 C 17.863281 -18.609375 18.132812 -18.597656 18.46875 -18.578125 C 18.8125 -18.566406 19.160156 -18.523438 19.515625 -18.453125 C 19.878906 -18.390625 20.191406 -18.28125 20.453125 -18.125 C 20.710938 -17.976562 20.851562 -17.773438 20.875 -17.515625 Z M 20.875 -17.515625 "/></g></g><g style="fill:#ffffff;fill-opacity:0.4;"><g transform="translate(143.378303, 131.162134)"><path style="stroke:none" d="M 14.0625 -9.296875 L 14.0625 -9.328125 C 14.0625 -11.734375 13.734375 -13.59375 13.078125 -14.90625 C 12.421875 -16.226562 11.582031 -16.898438 10.5625 -16.921875 C 9.976562 -16.921875 9.570312 -16.734375 9.34375 -16.359375 C 9.125 -15.992188 9.015625 -15.257812 9.015625 -14.15625 C 9.015625 -14.0625 9.015625 -13.773438 9.015625 -13.296875 C 9.015625 -12.816406 9.015625 -12.222656 9.015625 -11.515625 C 9.015625 -10.804688 9.015625 -10.066406 9.015625 -9.296875 C 9.015625 -8.523438 9.015625 -7.785156 9.015625 -7.078125 C 9.015625 -6.367188 9.015625 -5.78125 9.015625 -5.3125 C 9.015625 -4.84375 9.015625 -4.5625 9.015625 -4.46875 C 9.015625 -3.375 9.125 -2.632812 9.34375 -2.25 C 9.570312 -1.875 9.976562 -1.6875 10.5625 -1.6875 C 11.582031 -1.6875 12.421875 -2.347656 13.078125 -3.671875 C 13.734375 -5.003906 14.0625 -6.878906 14.0625 -9.296875 Z M 9.296875 -18.671875 C 11.578125 -18.671875 13.585938 -18.289062 15.328125 -17.53125 C 17.066406 -16.78125 18.4375 -15.71875 19.4375 -14.34375 C 20.4375 -12.96875 20.945312 -11.332031 20.96875 -9.4375 L 20.96875 -9.1875 C 20.945312 -7.300781 20.4375 -5.664062 19.4375 -4.28125 C 18.4375 -2.894531 17.066406 -1.820312 15.328125 -1.0625 C 13.585938 -0.3125 11.578125 0.0664062 9.296875 0.078125 C 9.234375 0.078125 8.976562 0.0703125 8.53125 0.0625 C 8.09375 0.0625 7.550781 0.0507812 6.90625 0.03125 C 6.257812 0.0078125 5.578125 -0.0195312 4.859375 -0.0625 C 4.140625 -0.113281 3.457031 -0.179688 2.8125 -0.265625 C 2.175781 -0.347656 1.648438 -0.445312 1.234375 -0.5625 C 0.828125 -0.675781 0.601562 -0.816406 0.5625 -0.984375 C 0.53125 -1.265625 0.597656 -1.507812 0.765625 -1.71875 C 0.929688 -1.925781 1.140625 -2.140625 1.390625 -2.359375 C 1.648438 -2.578125 1.878906 -2.847656 2.078125 -3.171875 C 2.273438 -3.503906 2.375 -3.9375 2.375 -4.46875 L 2.375 -14.15625 C 2.375 -14.675781 2.273438 -15.101562 2.078125 -15.4375 C 1.878906 -15.769531 1.648438 -16.039062 1.390625 -16.25 C 1.140625 -16.46875 0.929688 -16.675781 0.765625 -16.875 C 0.597656 -17.070312 0.53125 -17.3125 0.5625 -17.59375 C 0.601562 -17.800781 0.84375 -17.972656 1.28125 -18.109375 C 1.726562 -18.242188 2.285156 -18.347656 2.953125 -18.421875 C 3.617188 -18.492188 4.289062 -18.550781 4.96875 -18.59375 C 5.644531 -18.644531 6.25 -18.675781 6.78125 -18.6875 C 7.3125 -18.695312 7.660156 -18.703125 7.828125 -18.703125 C 7.847656 -18.703125 7.953125 -18.703125 8.140625 -18.703125 C 8.328125 -18.703125 8.535156 -18.695312 8.765625 -18.6875 C 9.003906 -18.675781 9.179688 -18.671875 9.296875 -18.671875 Z M 9.296875 -18.671875 "/></g></g><g style="fill:#ffffff;fill-opacity:0.4;"><g transform="translate(177.053352, 131.162134)"><path style="stroke:none" d="M 0.5625 -0.984375 C 0.53125 -1.265625 0.597656 -1.507812 0.765625 -1.71875 C 0.929688 -1.925781 1.140625 -2.140625 1.390625 -2.359375 C 1.648438 -2.578125 1.878906 -2.847656 2.078125 -3.171875 C 2.273438 -3.503906 2.375 -3.9375 2.375 -4.46875 L 2.375 -14.15625 C 2.375 -14.675781 2.273438 -15.101562 2.078125 -15.4375 C 1.878906 -15.769531 1.648438 -16.039062 1.390625 -16.25 C 1.140625 -16.46875 0.929688 -16.675781 0.765625 -16.875 C 0.597656 -17.070312 0.53125 -17.3125 0.5625 -17.59375 C 0.601562 -17.769531 0.804688 -17.914062 1.171875 -18.03125 C 1.535156 -18.15625 1.992188 -18.257812 2.546875 -18.34375 C 3.109375 -18.425781 3.691406 -18.488281 4.296875 -18.53125 C 4.910156 -18.582031 5.488281 -18.617188 6.03125 -18.640625 C 6.582031 -18.660156 7.03125 -18.671875 7.375 -18.671875 L 7.40625 -18.703125 C 7.53125 -18.703125 7.695312 -18.703125 7.90625 -18.703125 C 8.113281 -18.703125 8.347656 -18.703125 8.609375 -18.703125 C 9.253906 -18.703125 10.003906 -18.695312 10.859375 -18.6875 C 11.710938 -18.675781 12.578125 -18.65625 13.453125 -18.625 C 14.335938 -18.601562 15.117188 -18.554688 15.796875 -18.484375 C 16.472656 -18.421875 16.941406 -18.332031 17.203125 -18.21875 C 17.546875 -18.070312 17.785156 -17.832031 17.921875 -17.5 C 18.066406 -17.164062 18.144531 -16.804688 18.15625 -16.421875 C 18.175781 -16.035156 18.1875 -15.691406 18.1875 -15.390625 C 18.1875 -15.109375 18.175781 -14.742188 18.15625 -14.296875 C 18.144531 -13.859375 18.0625 -13.46875 17.90625 -13.125 C 17.757812 -12.789062 17.476562 -12.625 17.0625 -12.625 C 16.757812 -12.625 16.519531 -12.769531 16.34375 -13.0625 C 16.164062 -13.351562 16 -13.710938 15.84375 -14.140625 C 15.695312 -14.566406 15.515625 -14.988281 15.296875 -15.40625 C 15.078125 -15.832031 14.789062 -16.191406 14.4375 -16.484375 C 14.082031 -16.773438 13.601562 -16.921875 13 -16.921875 L 10.8125 -16.921875 C 10.25 -16.898438 9.804688 -16.703125 9.484375 -16.328125 C 9.171875 -15.953125 9.015625 -15.226562 9.015625 -14.15625 L 9.015625 -9.921875 L 9.0625 -9.921875 C 9.644531 -9.921875 10.109375 -10.019531 10.453125 -10.21875 C 10.796875 -10.414062 11.0625 -10.660156 11.25 -10.953125 C 11.4375 -11.242188 11.59375 -11.53125 11.71875 -11.8125 C 11.851562 -12.09375 11.992188 -12.332031 12.140625 -12.53125 C 12.296875 -12.726562 12.523438 -12.828125 12.828125 -12.828125 C 13.203125 -12.828125 13.445312 -12.703125 13.5625 -12.453125 C 13.675781 -12.210938 13.734375 -11.914062 13.734375 -11.5625 C 13.734375 -11.21875 13.734375 -10.894531 13.734375 -10.59375 L 13.734375 -7.4375 C 13.734375 -7.132812 13.734375 -6.8125 13.734375 -6.46875 C 13.734375 -6.125 13.675781 -5.828125 13.5625 -5.578125 C 13.445312 -5.335938 13.203125 -5.21875 12.828125 -5.21875 C 12.523438 -5.21875 12.296875 -5.316406 12.140625 -5.515625 C 11.992188 -5.710938 11.851562 -5.953125 11.71875 -6.234375 C 11.59375 -6.523438 11.4375 -6.8125 11.25 -7.09375 C 11.0625 -7.375 10.800781 -7.613281 10.46875 -7.8125 C 10.132812 -8.007812 9.664062 -8.109375 9.0625 -8.109375 L 9.015625 -8.109375 L 9.015625 -4.46875 C 9.015625 -3.445312 9.15625 -2.738281 9.4375 -2.34375 C 9.71875 -1.945312 10.113281 -1.726562 10.625 -1.6875 L 13.84375 -1.6875 C 14.445312 -1.6875 14.925781 -1.832031 15.28125 -2.125 C 15.632812 -2.425781 15.921875 -2.785156 16.140625 -3.203125 C 16.359375 -3.628906 16.539062 -4.050781 16.6875 -4.46875 C 16.84375 -4.894531 17.007812 -5.253906 17.1875 -5.546875 C 17.363281 -5.835938 17.601562 -5.984375 17.90625 -5.984375 C 18.320312 -5.984375 18.601562 -5.8125 18.75 -5.46875 C 18.90625 -5.132812 18.992188 -4.75 19.015625 -4.3125 C 19.035156 -3.882812 19.046875 -3.519531 19.046875 -3.21875 C 19.046875 -2.914062 19.03125 -2.570312 19 -2.1875 C 18.96875 -1.800781 18.882812 -1.441406 18.75 -1.109375 C 18.625 -0.785156 18.390625 -0.546875 18.046875 -0.390625 C 17.859375 -0.316406 17.484375 -0.25 16.921875 -0.1875 C 16.359375 -0.132812 15.691406 -0.0859375 14.921875 -0.046875 C 14.160156 -0.015625 13.378906 0.0078125 12.578125 0.03125 C 11.785156 0.0507812 11.039062 0.0625 10.34375 0.0625 C 9.644531 0.0703125 9.078125 0.078125 8.640625 0.078125 C 8.210938 0.078125 7.988281 0.078125 7.96875 0.078125 L 7.9375 0.078125 C 7.5625 0.078125 7.070312 0.0625 6.46875 0.03125 C 5.863281 0.0078125 5.226562 -0.0195312 4.5625 -0.0625 C 3.894531 -0.113281 3.265625 -0.175781 2.671875 -0.25 C 2.078125 -0.332031 1.585938 -0.429688 1.203125 -0.546875 C 0.816406 -0.671875 0.601562 -0.816406 0.5625 -0.984375 Z M 0.5625 -0.984375 "/></g></g><g style="fill:#ffffff;fill-opacity:0.4;"><g transform="translate(208.807546, 131.162134)"><path style="stroke:none" d="M 2.375 -14.15625 C 2.375 -14.675781 2.273438 -15.101562 2.078125 -15.4375 C 1.878906 -15.769531 1.648438 -16.039062 1.390625 -16.25 C 1.140625 -16.46875 0.929688 -16.679688 0.765625 -16.890625 C 0.597656 -17.097656 0.53125 -17.34375 0.5625 -17.625 C 0.601562 -17.832031 0.84375 -18 1.28125 -18.125 C 1.726562 -18.25 2.285156 -18.351562 2.953125 -18.4375 C 3.617188 -18.519531 4.289062 -18.578125 4.96875 -18.609375 C 5.644531 -18.648438 6.25 -18.675781 6.78125 -18.6875 C 7.3125 -18.695312 7.660156 -18.703125 7.828125 -18.703125 L 8.984375 -18.703125 C 11.179688 -18.703125 13.132812 -18.460938 14.84375 -17.984375 C 16.550781 -17.503906 17.882812 -16.796875 18.84375 -15.859375 C 19.800781 -14.929688 20.28125 -13.78125 20.28125 -12.40625 C 20.28125 -11.3125 19.976562 -10.378906 19.375 -9.609375 C 18.769531 -8.835938 17.929688 -8.207031 16.859375 -7.71875 C 17.222656 -7.09375 17.613281 -6.457031 18.03125 -5.8125 C 18.457031 -5.175781 18.972656 -4.519531 19.578125 -3.84375 C 19.992188 -3.382812 20.367188 -3.046875 20.703125 -2.828125 C 21.046875 -2.617188 21.316406 -2.421875 21.515625 -2.234375 C 21.710938 -2.046875 21.8125 -1.753906 21.8125 -1.359375 C 21.8125 -1.015625 21.601562 -0.75 21.1875 -0.5625 C 20.769531 -0.375 20.273438 -0.234375 19.703125 -0.140625 C 19.128906 -0.046875 18.585938 0.0078125 18.078125 0.03125 C 17.566406 0.0507812 17.207031 0.0625 17 0.0625 C 16.800781 0.0625 16.46875 0.0546875 16 0.046875 C 15.539062 0.0351562 15.046875 -0.00390625 14.515625 -0.078125 C 13.992188 -0.160156 13.53125 -0.273438 13.125 -0.421875 C 12.71875 -0.578125 12.46875 -0.796875 12.375 -1.078125 C 12.300781 -1.335938 12.289062 -1.582031 12.34375 -1.8125 C 12.40625 -2.050781 12.460938 -2.304688 12.515625 -2.578125 C 12.566406 -2.859375 12.5625 -3.175781 12.5 -3.53125 C 12.4375 -3.882812 12.234375 -4.316406 11.890625 -4.828125 C 11.535156 -5.378906 11.265625 -5.753906 11.078125 -5.953125 C 10.898438 -6.160156 10.753906 -6.285156 10.640625 -6.328125 C 10.535156 -6.378906 10.378906 -6.40625 10.171875 -6.40625 C 10.097656 -6.40625 10.023438 -6.40625 9.953125 -6.40625 C 9.890625 -6.40625 9.820312 -6.398438 9.75 -6.390625 C 9.613281 -6.390625 9.460938 -6.363281 9.296875 -6.3125 C 9.128906 -6.269531 9.035156 -6.144531 9.015625 -5.9375 L 9.015625 -4.46875 C 9.015625 -3.914062 9.109375 -3.472656 9.296875 -3.140625 C 9.484375 -2.816406 9.691406 -2.546875 9.921875 -2.328125 C 10.160156 -2.109375 10.367188 -1.898438 10.546875 -1.703125 C 10.722656 -1.503906 10.804688 -1.265625 10.796875 -0.984375 C 10.773438 -0.722656 10.535156 -0.519531 10.078125 -0.375 C 9.628906 -0.238281 9.101562 -0.132812 8.5 -0.0625 C 7.894531 0 7.328125 0.0351562 6.796875 0.046875 C 6.273438 0.0664062 5.910156 0.078125 5.703125 0.078125 C 5.492188 0.078125 5.125 0.0664062 4.59375 0.046875 C 4.070312 0.0351562 3.503906 -0.00390625 2.890625 -0.078125 C 2.285156 -0.160156 1.753906 -0.269531 1.296875 -0.40625 C 0.847656 -0.550781 0.601562 -0.742188 0.5625 -0.984375 C 0.53125 -1.265625 0.597656 -1.507812 0.765625 -1.71875 C 0.929688 -1.925781 1.140625 -2.140625 1.390625 -2.359375 C 1.648438 -2.578125 1.878906 -2.847656 2.078125 -3.171875 C 2.273438 -3.503906 2.375 -3.9375 2.375 -4.46875 Z M 9.015625 -14.15625 L 9.015625 -9.71875 C 9.015625 -9.226562 9.128906 -8.890625 9.359375 -8.703125 C 9.597656 -8.515625 9.832031 -8.40625 10.0625 -8.375 C 10.300781 -8.34375 10.429688 -8.320312 10.453125 -8.3125 C 11.453125 -8.3125 12.226562 -8.601562 12.78125 -9.1875 C 13.332031 -9.78125 13.609375 -10.867188 13.609375 -12.453125 L 13.609375 -12.484375 C 13.609375 -14.015625 13.378906 -15.125 12.921875 -15.8125 C 12.460938 -16.507812 11.769531 -16.878906 10.84375 -16.921875 C 10.257812 -16.921875 9.804688 -16.734375 9.484375 -16.359375 C 9.171875 -15.984375 9.015625 -15.25 9.015625 -14.15625 Z M 9.015625 -14.15625 "/></g></g><g style="fill:#ffffff;fill-opacity:1;"><g transform="translate(30.315266, 129.039248)"><path style="stroke:none" d="M 29.78125 -17.546875 C 29.8125 -17.242188 29.734375 -16.988281 29.546875 -16.78125 C 29.359375 -16.570312 29.125 -16.351562 28.84375 -16.125 C 28.5625 -15.90625 28.28125 -15.625 28 -15.28125 C 27.71875 -14.945312 27.5 -14.503906 27.34375 -13.953125 L 23.765625 -1.40625 C 23.628906 -0.957031 23.378906 -0.597656 23.015625 -0.328125 C 22.660156 -0.0546875 22.257812 0.078125 21.8125 0.078125 L 20.703125 0.078125 C 20.285156 0.078125 19.90625 -0.0390625 19.5625 -0.28125 C 19.21875 -0.53125 18.96875 -0.851562 18.8125 -1.25 C 18.570312 -1.882812 18.300781 -2.617188 18 -3.453125 C 17.695312 -4.296875 17.382812 -5.171875 17.0625 -6.078125 C 16.738281 -6.992188 16.421875 -7.890625 16.109375 -8.765625 C 15.804688 -9.640625 15.515625 -10.445312 15.234375 -11.1875 L 12.03125 -1.296875 C 11.914062 -0.878906 11.691406 -0.546875 11.359375 -0.296875 C 11.035156 -0.0546875 10.65625 0.0625 10.21875 0.0625 L 8.875 0.0625 C 8.5 0.0390625 8.15625 -0.0820312 7.84375 -0.3125 C 7.53125 -0.539062 7.304688 -0.84375 7.171875 -1.21875 C 6.890625 -1.96875 6.570312 -2.859375 6.21875 -3.890625 C 5.875 -4.929688 5.515625 -6 5.140625 -7.09375 C 4.765625 -8.1875 4.414062 -9.222656 4.09375 -10.203125 C 3.769531 -11.179688 3.5 -12 3.28125 -12.65625 C 3.070312 -13.3125 2.9375 -13.71875 2.875 -13.875 C 2.675781 -14.457031 2.414062 -14.90625 2.09375 -15.21875 C 1.769531 -15.539062 1.453125 -15.8125 1.140625 -16.03125 C 0.828125 -16.25 0.585938 -16.460938 0.421875 -16.671875 C 0.253906 -16.878906 0.226562 -17.160156 0.34375 -17.515625 C 0.414062 -17.796875 0.65625 -18.007812 1.0625 -18.15625 C 1.46875 -18.3125 1.9375 -18.425781 2.46875 -18.5 C 3.007812 -18.570312 3.515625 -18.613281 3.984375 -18.625 C 4.453125 -18.632812 4.789062 -18.640625 5 -18.640625 C 5.050781 -18.640625 5.132812 -18.640625 5.25 -18.640625 C 5.363281 -18.640625 5.488281 -18.640625 5.625 -18.640625 C 6.019531 -18.640625 6.5 -18.628906 7.0625 -18.609375 C 7.625 -18.597656 8.179688 -18.550781 8.734375 -18.46875 C 9.296875 -18.394531 9.769531 -18.28125 10.15625 -18.125 C 10.539062 -17.976562 10.753906 -17.773438 10.796875 -17.515625 C 10.828125 -17.265625 10.765625 -17.035156 10.609375 -16.828125 C 10.460938 -16.628906 10.3125 -16.40625 10.15625 -16.15625 C 10 -15.914062 9.890625 -15.613281 9.828125 -15.25 C 9.773438 -14.894531 9.84375 -14.4375 10.03125 -13.875 L 11.703125 -8.609375 C 11.847656 -9.085938 12.03125 -9.65625 12.25 -10.3125 C 12.476562 -10.96875 12.710938 -11.65625 12.953125 -12.375 C 13.203125 -13.09375 13.4375 -13.78125 13.65625 -14.4375 C 13.875 -15.09375 14.0625 -15.660156 14.21875 -16.140625 C 14.382812 -16.617188 14.492188 -16.945312 14.546875 -17.125 C 14.703125 -17.570312 14.960938 -17.929688 15.328125 -18.203125 C 15.691406 -18.472656 16.097656 -18.617188 16.546875 -18.640625 C 16.753906 -18.640625 16.96875 -18.640625 17.1875 -18.640625 C 17.40625 -18.640625 17.609375 -18.640625 17.796875 -18.640625 C 18.234375 -18.640625 18.640625 -18.507812 19.015625 -18.25 C 19.390625 -18 19.648438 -17.660156 19.796875 -17.234375 C 19.859375 -17.097656 19.976562 -16.78125 20.15625 -16.28125 C 20.332031 -15.78125 20.546875 -15.1875 20.796875 -14.5 C 21.054688 -13.8125 21.320312 -13.097656 21.59375 -12.359375 C 21.863281 -11.617188 22.117188 -10.925781 22.359375 -10.28125 C 22.597656 -9.644531 22.789062 -9.125 22.9375 -8.71875 C 23.09375 -8.3125 23.171875 -8.109375 23.171875 -8.109375 C 23.410156 -8.929688 23.644531 -9.75 23.875 -10.5625 C 24.113281 -11.375 24.320312 -12.082031 24.5 -12.6875 C 24.6875 -13.300781 24.804688 -13.722656 24.859375 -13.953125 C 25.023438 -14.515625 25.039062 -14.96875 24.90625 -15.3125 C 24.78125 -15.664062 24.59375 -15.957031 24.34375 -16.1875 C 24.101562 -16.414062 23.875 -16.628906 23.65625 -16.828125 C 23.4375 -17.023438 23.328125 -17.273438 23.328125 -17.578125 C 23.328125 -17.910156 23.503906 -18.148438 23.859375 -18.296875 C 24.222656 -18.453125 24.65625 -18.550781 25.15625 -18.59375 C 25.65625 -18.644531 26.082031 -18.671875 26.4375 -18.671875 C 26.644531 -18.671875 26.921875 -18.660156 27.265625 -18.640625 C 27.617188 -18.617188 27.976562 -18.570312 28.34375 -18.5 C 28.71875 -18.425781 29.039062 -18.3125 29.3125 -18.15625 C 29.582031 -18.007812 29.738281 -17.804688 29.78125 -17.546875 Z M 29.78125 -17.546875 "/></g></g><g style="fill:#ffffff;fill-opacity:1;"><g transform="translate(72.662404, 129.039248)"><path style="stroke:none" d="M 6.40625 -6.6875 L 11.984375 -6.6875 L 9.640625 -12 C 9.617188 -12.09375 9.585938 -12.175781 9.546875 -12.25 C 9.503906 -12.332031 9.46875 -12.410156 9.4375 -12.484375 L 9.09375 -13.28125 C 8.851562 -12.675781 8.570312 -11.988281 8.25 -11.21875 C 7.925781 -10.445312 7.601562 -9.664062 7.28125 -8.875 C 6.96875 -8.082031 6.675781 -7.351562 6.40625 -6.6875 Z M 19.515625 -4.640625 C 19.742188 -4.066406 20.023438 -3.613281 20.359375 -3.28125 C 20.703125 -2.957031 21.035156 -2.695312 21.359375 -2.5 C 21.679688 -2.300781 21.9375 -2.09375 22.125 -1.875 C 22.3125 -1.65625 22.359375 -1.378906 22.265625 -1.046875 C 22.179688 -0.765625 21.9375 -0.546875 21.53125 -0.390625 C 21.132812 -0.242188 20.671875 -0.128906 20.140625 -0.046875 C 19.609375 0.0234375 19.097656 0.0625 18.609375 0.0625 C 18.117188 0.0703125 17.753906 0.078125 17.515625 0.078125 C 17.234375 0.078125 16.804688 0.0664062 16.234375 0.046875 C 15.671875 0.0351562 15.082031 0 14.46875 -0.0625 C 13.863281 -0.132812 13.328125 -0.242188 12.859375 -0.390625 C 12.398438 -0.546875 12.132812 -0.765625 12.0625 -1.046875 C 11.988281 -1.285156 12.023438 -1.507812 12.171875 -1.71875 C 12.328125 -1.925781 12.503906 -2.144531 12.703125 -2.375 C 12.898438 -2.613281 13.035156 -2.910156 13.109375 -3.265625 C 13.179688 -3.628906 13.101562 -4.085938 12.875 -4.640625 L 12.765625 -4.921875 L 5.671875 -4.921875 L 5.59375 -4.6875 C 5.363281 -4.101562 5.296875 -3.632812 5.390625 -3.28125 C 5.484375 -2.9375 5.640625 -2.648438 5.859375 -2.421875 C 6.078125 -2.203125 6.28125 -1.988281 6.46875 -1.78125 C 6.65625 -1.570312 6.726562 -1.316406 6.6875 -1.015625 C 6.675781 -0.734375 6.519531 -0.515625 6.21875 -0.359375 C 5.914062 -0.210938 5.554688 -0.101562 5.140625 -0.03125 C 4.722656 0.03125 4.316406 0.0625 3.921875 0.0625 C 3.523438 0.0703125 3.222656 0.078125 3.015625 0.078125 C 2.753906 0.0664062 2.398438 0.03125 1.953125 -0.03125 C 1.515625 -0.101562 1.125 -0.21875 0.78125 -0.375 C 0.445312 -0.539062 0.28125 -0.773438 0.28125 -1.078125 C 0.28125 -1.378906 0.382812 -1.628906 0.59375 -1.828125 C 0.800781 -2.035156 1.0625 -2.257812 1.375 -2.5 C 1.6875 -2.738281 1.992188 -3.023438 2.296875 -3.359375 C 2.609375 -3.703125 2.878906 -4.144531 3.109375 -4.6875 L 7.71875 -16.109375 C 7.425781 -16.535156 7.203125 -16.878906 7.046875 -17.140625 C 6.890625 -17.410156 6.847656 -17.707031 6.921875 -18.03125 C 7.015625 -18.34375 7.25 -18.582031 7.625 -18.75 C 8 -18.925781 8.414062 -19.039062 8.875 -19.09375 C 9.34375 -19.15625 9.742188 -19.1875 10.078125 -19.1875 C 10.171875 -19.1875 10.257812 -19.179688 10.34375 -19.171875 C 10.4375 -19.160156 10.507812 -19.15625 10.5625 -19.15625 C 11.46875 -19.082031 12.1875 -18.898438 12.71875 -18.609375 C 13.257812 -18.316406 13.6875 -17.953125 14 -17.515625 C 14.3125 -17.078125 14.566406 -16.585938 14.765625 -16.046875 C 14.960938 -15.515625 15.171875 -14.976562 15.390625 -14.4375 C 15.390625 -14.4375 15.484375 -14.210938 15.671875 -13.765625 C 15.867188 -13.328125 16.113281 -12.75 16.40625 -12.03125 C 16.707031 -11.320312 17.023438 -10.5625 17.359375 -9.75 C 17.703125 -8.9375 18.03125 -8.15625 18.34375 -7.40625 C 18.65625 -6.664062 18.921875 -6.039062 19.140625 -5.53125 C 19.359375 -5.03125 19.484375 -4.734375 19.515625 -4.640625 Z M 19.515625 -4.640625 "/></g></g><g style="fill:#ffffff;fill-opacity:1;"><g transform="translate(107.523863, 129.039248)"><path style="stroke:none" d="M 20.875 -17.515625 C 20.894531 -17.234375 20.8125 -17 20.625 -16.8125 C 20.4375 -16.625 20.210938 -16.425781 19.953125 -16.21875 C 19.703125 -16.007812 19.476562 -15.742188 19.28125 -15.421875 C 19.082031 -15.097656 18.984375 -14.664062 18.984375 -14.125 C 18.984375 -13.875 18.984375 -13.425781 18.984375 -12.78125 C 18.984375 -12.132812 18.984375 -11.390625 18.984375 -10.546875 C 18.984375 -9.710938 18.984375 -8.875 18.984375 -8.03125 C 18.984375 -7.195312 18.984375 -6.453125 18.984375 -5.796875 C 18.984375 -5.148438 18.984375 -4.707031 18.984375 -4.46875 C 18.984375 -3.726562 19.039062 -3.175781 19.15625 -2.8125 C 19.28125 -2.457031 19.398438 -2.160156 19.515625 -1.921875 C 19.628906 -1.691406 19.671875 -1.390625 19.640625 -1.015625 C 19.617188 -0.660156 19.5 -0.40625 19.28125 -0.25 C 19.0625 -0.101562 18.804688 -0.015625 18.515625 0.015625 C 18.222656 0.0546875 17.9375 0.078125 17.65625 0.078125 C 17.582031 0.078125 17.492188 0.078125 17.390625 0.078125 C 17.285156 0.078125 17.175781 0.0703125 17.0625 0.0625 L 16.265625 0.0625 C 15.285156 0.0625 14.46875 -0.328125 13.8125 -1.109375 L 5.140625 -11.53125 C 5.140625 -10.882812 5.140625 -10.191406 5.140625 -9.453125 C 5.140625 -8.722656 5.140625 -8.019531 5.140625 -7.34375 C 5.140625 -6.664062 5.140625 -6.066406 5.140625 -5.546875 C 5.140625 -5.035156 5.140625 -4.675781 5.140625 -4.46875 C 5.140625 -3.914062 5.238281 -3.472656 5.4375 -3.140625 C 5.632812 -2.816406 5.859375 -2.550781 6.109375 -2.34375 C 6.367188 -2.132812 6.59375 -1.929688 6.78125 -1.734375 C 6.96875 -1.535156 7.050781 -1.296875 7.03125 -1.015625 C 7.007812 -0.753906 6.875 -0.546875 6.625 -0.390625 C 6.375 -0.242188 6.066406 -0.132812 5.703125 -0.0625 C 5.347656 0 4.992188 0.0351562 4.640625 0.046875 C 4.296875 0.0664062 4.019531 0.078125 3.8125 0.078125 C 3.550781 0.078125 3.171875 0.0507812 2.671875 0 C 2.171875 -0.0390625 1.707031 -0.140625 1.28125 -0.296875 C 0.863281 -0.453125 0.625 -0.691406 0.5625 -1.015625 C 0.53125 -1.296875 0.609375 -1.535156 0.796875 -1.734375 C 0.984375 -1.929688 1.210938 -2.140625 1.484375 -2.359375 C 1.753906 -2.578125 1.992188 -2.847656 2.203125 -3.171875 C 2.410156 -3.503906 2.515625 -3.9375 2.515625 -4.46875 L 2.515625 -14.125 C 2.515625 -14.65625 2.410156 -15.082031 2.203125 -15.40625 C 1.992188 -15.738281 1.753906 -16.007812 1.484375 -16.21875 C 1.210938 -16.4375 0.984375 -16.644531 0.796875 -16.84375 C 0.609375 -17.039062 0.53125 -17.285156 0.5625 -17.578125 C 0.601562 -17.835938 0.765625 -18.039062 1.046875 -18.1875 C 1.328125 -18.34375 1.660156 -18.453125 2.046875 -18.515625 C 2.429688 -18.578125 2.804688 -18.617188 3.171875 -18.640625 C 3.546875 -18.660156 3.835938 -18.671875 4.046875 -18.671875 C 4.046875 -18.671875 4.179688 -18.671875 4.453125 -18.671875 C 4.722656 -18.671875 5.046875 -18.671875 5.421875 -18.671875 C 5.609375 -18.671875 5.804688 -18.671875 6.015625 -18.671875 C 6.222656 -18.671875 6.421875 -18.671875 6.609375 -18.671875 C 7.648438 -18.671875 8.476562 -18.265625 9.09375 -17.453125 C 9.84375 -16.535156 10.640625 -15.566406 11.484375 -14.546875 C 12.335938 -13.523438 13.179688 -12.515625 14.015625 -11.515625 C 14.859375 -10.523438 15.628906 -9.597656 16.328125 -8.734375 L 16.328125 -14.125 C 16.328125 -14.65625 16.222656 -15.078125 16.015625 -15.390625 C 15.804688 -15.710938 15.566406 -15.984375 15.296875 -16.203125 C 15.023438 -16.421875 14.796875 -16.625 14.609375 -16.8125 C 14.421875 -17 14.351562 -17.234375 14.40625 -17.515625 C 14.46875 -17.859375 14.707031 -18.101562 15.125 -18.25 C 15.550781 -18.394531 16.015625 -18.488281 16.515625 -18.53125 C 17.015625 -18.582031 17.394531 -18.609375 17.65625 -18.609375 C 17.863281 -18.609375 18.132812 -18.597656 18.46875 -18.578125 C 18.8125 -18.566406 19.160156 -18.523438 19.515625 -18.453125 C 19.878906 -18.390625 20.191406 -18.28125 20.453125 -18.125 C 20.710938 -17.976562 20.851562 -17.773438 20.875 -17.515625 Z M 20.875 -17.515625 "/></g></g><g style="fill:#ffffff;fill-opacity:1;"><g transform="translate(141.255414, 129.039248)"><path style="stroke:none" d="M 14.0625 -9.296875 L 14.0625 -9.328125 C 14.0625 -11.734375 13.734375 -13.59375 13.078125 -14.90625 C 12.421875 -16.226562 11.582031 -16.898438 10.5625 -16.921875 C 9.976562 -16.921875 9.570312 -16.734375 9.34375 -16.359375 C 9.125 -15.992188 9.015625 -15.257812 9.015625 -14.15625 C 9.015625 -14.0625 9.015625 -13.773438 9.015625 -13.296875 C 9.015625 -12.816406 9.015625 -12.222656 9.015625 -11.515625 C 9.015625 -10.804688 9.015625 -10.066406 9.015625 -9.296875 C 9.015625 -8.523438 9.015625 -7.785156 9.015625 -7.078125 C 9.015625 -6.367188 9.015625 -5.78125 9.015625 -5.3125 C 9.015625 -4.84375 9.015625 -4.5625 9.015625 -4.46875 C 9.015625 -3.375 9.125 -2.632812 9.34375 -2.25 C 9.570312 -1.875 9.976562 -1.6875 10.5625 -1.6875 C 11.582031 -1.6875 12.421875 -2.347656 13.078125 -3.671875 C 13.734375 -5.003906 14.0625 -6.878906 14.0625 -9.296875 Z M 9.296875 -18.671875 C 11.578125 -18.671875 13.585938 -18.289062 15.328125 -17.53125 C 17.066406 -16.78125 18.4375 -15.71875 19.4375 -14.34375 C 20.4375 -12.96875 20.945312 -11.332031 20.96875 -9.4375 L 20.96875 -9.1875 C 20.945312 -7.300781 20.4375 -5.664062 19.4375 -4.28125 C 18.4375 -2.894531 17.066406 -1.820312 15.328125 -1.0625 C 13.585938 -0.3125 11.578125 0.0664062 9.296875 0.078125 C 9.234375 0.078125 8.976562 0.0703125 8.53125 0.0625 C 8.09375 0.0625 7.550781 0.0507812 6.90625 0.03125 C 6.257812 0.0078125 5.578125 -0.0195312 4.859375 -0.0625 C 4.140625 -0.113281 3.457031 -0.179688 2.8125 -0.265625 C 2.175781 -0.347656 1.648438 -0.445312 1.234375 -0.5625 C 0.828125 -0.675781 0.601562 -0.816406 0.5625 -0.984375 C 0.53125 -1.265625 0.597656 -1.507812 0.765625 -1.71875 C 0.929688 -1.925781 1.140625 -2.140625 1.390625 -2.359375 C 1.648438 -2.578125 1.878906 -2.847656 2.078125 -3.171875 C 2.273438 -3.503906 2.375 -3.9375 2.375 -4.46875 L 2.375 -14.15625 C 2.375 -14.675781 2.273438 -15.101562 2.078125 -15.4375 C 1.878906 -15.769531 1.648438 -16.039062 1.390625 -16.25 C 1.140625 -16.46875 0.929688 -16.675781 0.765625 -16.875 C 0.597656 -17.070312 0.53125 -17.3125 0.5625 -17.59375 C 0.601562 -17.800781 0.84375 -17.972656 1.28125 -18.109375 C 1.726562 -18.242188 2.285156 -18.347656 2.953125 -18.421875 C 3.617188 -18.492188 4.289062 -18.550781 4.96875 -18.59375 C 5.644531 -18.644531 6.25 -18.675781 6.78125 -18.6875 C 7.3125 -18.695312 7.660156 -18.703125 7.828125 -18.703125 C 7.847656 -18.703125 7.953125 -18.703125 8.140625 -18.703125 C 8.328125 -18.703125 8.535156 -18.695312 8.765625 -18.6875 C 9.003906 -18.675781 9.179688 -18.671875 9.296875 -18.671875 Z M 9.296875 -18.671875 "/></g></g><g style="fill:#ffffff;fill-opacity:1;"><g transform="translate(174.930462, 129.039248)"><path style="stroke:none" d="M 0.5625 -0.984375 C 0.53125 -1.265625 0.597656 -1.507812 0.765625 -1.71875 C 0.929688 -1.925781 1.140625 -2.140625 1.390625 -2.359375 C 1.648438 -2.578125 1.878906 -2.847656 2.078125 -3.171875 C 2.273438 -3.503906 2.375 -3.9375 2.375 -4.46875 L 2.375 -14.15625 C 2.375 -14.675781 2.273438 -15.101562 2.078125 -15.4375 C 1.878906 -15.769531 1.648438 -16.039062 1.390625 -16.25 C 1.140625 -16.46875 0.929688 -16.675781 0.765625 -16.875 C 0.597656 -17.070312 0.53125 -17.3125 0.5625 -17.59375 C 0.601562 -17.769531 0.804688 -17.914062 1.171875 -18.03125 C 1.535156 -18.15625 1.992188 -18.257812 2.546875 -18.34375 C 3.109375 -18.425781 3.691406 -18.488281 4.296875 -18.53125 C 4.910156 -18.582031 5.488281 -18.617188 6.03125 -18.640625 C 6.582031 -18.660156 7.03125 -18.671875 7.375 -18.671875 L 7.40625 -18.703125 C 7.53125 -18.703125 7.695312 -18.703125 7.90625 -18.703125 C 8.113281 -18.703125 8.347656 -18.703125 8.609375 -18.703125 C 9.253906 -18.703125 10.003906 -18.695312 10.859375 -18.6875 C 11.710938 -18.675781 12.578125 -18.65625 13.453125 -18.625 C 14.335938 -18.601562 15.117188 -18.554688 15.796875 -18.484375 C 16.472656 -18.421875 16.941406 -18.332031 17.203125 -18.21875 C 17.546875 -18.070312 17.785156 -17.832031 17.921875 -17.5 C 18.066406 -17.164062 18.144531 -16.804688 18.15625 -16.421875 C 18.175781 -16.035156 18.1875 -15.691406 18.1875 -15.390625 C 18.1875 -15.109375 18.175781 -14.742188 18.15625 -14.296875 C 18.144531 -13.859375 18.0625 -13.46875 17.90625 -13.125 C 17.757812 -12.789062 17.476562 -12.625 17.0625 -12.625 C 16.757812 -12.625 16.519531 -12.769531 16.34375 -13.0625 C 16.164062 -13.351562 16 -13.710938 15.84375 -14.140625 C 15.695312 -14.566406 15.515625 -14.988281 15.296875 -15.40625 C 15.078125 -15.832031 14.789062 -16.191406 14.4375 -16.484375 C 14.082031 -16.773438 13.601562 -16.921875 13 -16.921875 L 10.8125 -16.921875 C 10.25 -16.898438 9.804688 -16.703125 9.484375 -16.328125 C 9.171875 -15.953125 9.015625 -15.226562 9.015625 -14.15625 L 9.015625 -9.921875 L 9.0625 -9.921875 C 9.644531 -9.921875 10.109375 -10.019531 10.453125 -10.21875 C 10.796875 -10.414062 11.0625 -10.660156 11.25 -10.953125 C 11.4375 -11.242188 11.59375 -11.53125 11.71875 -11.8125 C 11.851562 -12.09375 11.992188 -12.332031 12.140625 -12.53125 C 12.296875 -12.726562 12.523438 -12.828125 12.828125 -12.828125 C 13.203125 -12.828125 13.445312 -12.703125 13.5625 -12.453125 C 13.675781 -12.210938 13.734375 -11.914062 13.734375 -11.5625 C 13.734375 -11.21875 13.734375 -10.894531 13.734375 -10.59375 L 13.734375 -7.4375 C 13.734375 -7.132812 13.734375 -6.8125 13.734375 -6.46875 C 13.734375 -6.125 13.675781 -5.828125 13.5625 -5.578125 C 13.445312 -5.335938 13.203125 -5.21875 12.828125 -5.21875 C 12.523438 -5.21875 12.296875 -5.316406 12.140625 -5.515625 C 11.992188 -5.710938 11.851562 -5.953125 11.71875 -6.234375 C 11.59375 -6.523438 11.4375 -6.8125 11.25 -7.09375 C 11.0625 -7.375 10.800781 -7.613281 10.46875 -7.8125 C 10.132812 -8.007812 9.664062 -8.109375 9.0625 -8.109375 L 9.015625 -8.109375 L 9.015625 -4.46875 C 9.015625 -3.445312 9.15625 -2.738281 9.4375 -2.34375 C 9.71875 -1.945312 10.113281 -1.726562 10.625 -1.6875 L 13.84375 -1.6875 C 14.445312 -1.6875 14.925781 -1.832031 15.28125 -2.125 C 15.632812 -2.425781 15.921875 -2.785156 16.140625 -3.203125 C 16.359375 -3.628906 16.539062 -4.050781 16.6875 -4.46875 C 16.84375 -4.894531 17.007812 -5.253906 17.1875 -5.546875 C 17.363281 -5.835938 17.601562 -5.984375 17.90625 -5.984375 C 18.320312 -5.984375 18.601562 -5.8125 18.75 -5.46875 C 18.90625 -5.132812 18.992188 -4.75 19.015625 -4.3125 C 19.035156 -3.882812 19.046875 -3.519531 19.046875 -3.21875 C 19.046875 -2.914062 19.03125 -2.570312 19 -2.1875 C 18.96875 -1.800781 18.882812 -1.441406 18.75 -1.109375 C 18.625 -0.785156 18.390625 -0.546875 18.046875 -0.390625 C 17.859375 -0.316406 17.484375 -0.25 16.921875 -0.1875 C 16.359375 -0.132812 15.691406 -0.0859375 14.921875 -0.046875 C 14.160156 -0.015625 13.378906 0.0078125 12.578125 0.03125 C 11.785156 0.0507812 11.039062 0.0625 10.34375 0.0625 C 9.644531 0.0703125 9.078125 0.078125 8.640625 0.078125 C 8.210938 0.078125 7.988281 0.078125 7.96875 0.078125 L 7.9375 0.078125 C 7.5625 0.078125 7.070312 0.0625 6.46875 0.03125 C 5.863281 0.0078125 5.226562 -0.0195312 4.5625 -0.0625 C 3.894531 -0.113281 3.265625 -0.175781 2.671875 -0.25 C 2.078125 -0.332031 1.585938 -0.429688 1.203125 -0.546875 C 0.816406 -0.671875 0.601562 -0.816406 0.5625 -0.984375 Z M 0.5625 -0.984375 "/></g></g><g style="fill:#ffffff;fill-opacity:1;"><g transform="translate(206.684656, 129.039248)"><path style="stroke:none" d="M 2.375 -14.15625 C 2.375 -14.675781 2.273438 -15.101562 2.078125 -15.4375 C 1.878906 -15.769531 1.648438 -16.039062 1.390625 -16.25 C 1.140625 -16.46875 0.929688 -16.679688 0.765625 -16.890625 C 0.597656 -17.097656 0.53125 -17.34375 0.5625 -17.625 C 0.601562 -17.832031 0.84375 -18 1.28125 -18.125 C 1.726562 -18.25 2.285156 -18.351562 2.953125 -18.4375 C 3.617188 -18.519531 4.289062 -18.578125 4.96875 -18.609375 C 5.644531 -18.648438 6.25 -18.675781 6.78125 -18.6875 C 7.3125 -18.695312 7.660156 -18.703125 7.828125 -18.703125 L 8.984375 -18.703125 C 11.179688 -18.703125 13.132812 -18.460938 14.84375 -17.984375 C 16.550781 -17.503906 17.882812 -16.796875 18.84375 -15.859375 C 19.800781 -14.929688 20.28125 -13.78125 20.28125 -12.40625 C 20.28125 -11.3125 19.976562 -10.378906 19.375 -9.609375 C 18.769531 -8.835938 17.929688 -8.207031 16.859375 -7.71875 C 17.222656 -7.09375 17.613281 -6.457031 18.03125 -5.8125 C 18.457031 -5.175781 18.972656 -4.519531 19.578125 -3.84375 C 19.992188 -3.382812 20.367188 -3.046875 20.703125 -2.828125 C 21.046875 -2.617188 21.316406 -2.421875 21.515625 -2.234375 C 21.710938 -2.046875 21.8125 -1.753906 21.8125 -1.359375 C 21.8125 -1.015625 21.601562 -0.75 21.1875 -0.5625 C 20.769531 -0.375 20.273438 -0.234375 19.703125 -0.140625 C 19.128906 -0.046875 18.585938 0.0078125 18.078125 0.03125 C 17.566406 0.0507812 17.207031 0.0625 17 0.0625 C 16.800781 0.0625 16.46875 0.0546875 16 0.046875 C 15.539062 0.0351562 15.046875 -0.00390625 14.515625 -0.078125 C 13.992188 -0.160156 13.53125 -0.273438 13.125 -0.421875 C 12.71875 -0.578125 12.46875 -0.796875 12.375 -1.078125 C 12.300781 -1.335938 12.289062 -1.582031 12.34375 -1.8125 C 12.40625 -2.050781 12.460938 -2.304688 12.515625 -2.578125 C 12.566406 -2.859375 12.5625 -3.175781 12.5 -3.53125 C 12.4375 -3.882812 12.234375 -4.316406 11.890625 -4.828125 C 11.535156 -5.378906 11.265625 -5.753906 11.078125 -5.953125 C 10.898438 -6.160156 10.753906 -6.285156 10.640625 -6.328125 C 10.535156 -6.378906 10.378906 -6.40625 10.171875 -6.40625 C 10.097656 -6.40625 10.023438 -6.40625 9.953125 -6.40625 C 9.890625 -6.40625 9.820312 -6.398438 9.75 -6.390625 C 9.613281 -6.390625 9.460938 -6.363281 9.296875 -6.3125 C 9.128906 -6.269531 9.035156 -6.144531 9.015625 -5.9375 L 9.015625 -4.46875 C 9.015625 -3.914062 9.109375 -3.472656 9.296875 -3.140625 C 9.484375 -2.816406 9.691406 -2.546875 9.921875 -2.328125 C 10.160156 -2.109375 10.367188 -1.898438 10.546875 -1.703125 C 10.722656 -1.503906 10.804688 -1.265625 10.796875 -0.984375 C 10.773438 -0.722656 10.535156 -0.519531 10.078125 -0.375 C 9.628906 -0.238281 9.101562 -0.132812 8.5 -0.0625 C 7.894531 0 7.328125 0.0351562 6.796875 0.046875 C 6.273438 0.0664062 5.910156 0.078125 5.703125 0.078125 C 5.492188 0.078125 5.125 0.0664062 4.59375 0.046875 C 4.070312 0.0351562 3.503906 -0.00390625 2.890625 -0.078125 C 2.285156 -0.160156 1.753906 -0.269531 1.296875 -0.40625 C 0.847656 -0.550781 0.601562 -0.742188 0.5625 -0.984375 C 0.53125 -1.265625 0.597656 -1.507812 0.765625 -1.71875 C 0.929688 -1.925781 1.140625 -2.140625 1.390625 -2.359375 C 1.648438 -2.578125 1.878906 -2.847656 2.078125 -3.171875 C 2.273438 -3.503906 2.375 -3.9375 2.375 -4.46875 Z M 9.015625 -14.15625 L 9.015625 -9.71875 C 9.015625 -9.226562 9.128906 -8.890625 9.359375 -8.703125 C 9.597656 -8.515625 9.832031 -8.40625 10.0625 -8.375 C 10.300781 -8.34375 10.429688 -8.320312 10.453125 -8.3125 C 11.453125 -8.3125 12.226562 -8.601562 12.78125 -9.1875 C 13.332031 -9.78125 13.609375 -10.867188 13.609375 -12.453125 L 13.609375 -12.484375 C 13.609375 -14.015625 13.378906 -15.125 12.921875 -15.8125 C 12.460938 -16.507812 11.769531 -16.878906 10.84375 -16.921875 C 10.257812 -16.921875 9.804688 -16.734375 9.484375 -16.359375 C 9.171875 -15.984375 9.015625 -15.25 9.015625 -14.15625 Z M 9.015625 -14.15625 "/></g></g><g clip-rule="nonzero" clip-path="url(#aa764e11f7)"><path style=" stroke:none;fill-rule:nonzero;fill:#c79c79;fill-opacity:1;" d="M 141.535156 215.933594 L 353.941406 215.933594 L 353.941406 247.53125 L 141.535156 247.53125 Z M 141.535156 215.933594 "/></g><g style="fill:#69331b;fill-opacity:0.4;"><g transform="translate(173.413483, 242.821491)"><path style="stroke:none" d="M 20.875 -17.515625 C 20.894531 -17.234375 20.8125 -17 20.625 -16.8125 C 20.4375 -16.625 20.210938 -16.425781 19.953125 -16.21875 C 19.703125 -16.007812 19.476562 -15.742188 19.28125 -15.421875 C 19.082031 -15.097656 18.984375 -14.664062 18.984375 -14.125 C 18.984375 -13.875 18.984375 -13.425781 18.984375 -12.78125 C 18.984375 -12.132812 18.984375 -11.390625 18.984375 -10.546875 C 18.984375 -9.710938 18.984375 -8.875 18.984375 -8.03125 C 18.984375 -7.195312 18.984375 -6.453125 18.984375 -5.796875 C 18.984375 -5.148438 18.984375 -4.707031 18.984375 -4.46875 C 18.984375 -3.726562 19.039062 -3.175781 19.15625 -2.8125 C 19.28125 -2.457031 19.398438 -2.160156 19.515625 -1.921875 C 19.628906 -1.691406 19.671875 -1.390625 19.640625 -1.015625 C 19.617188 -0.660156 19.5 -0.40625 19.28125 -0.25 C 19.0625 -0.101562 18.804688 -0.015625 18.515625 0.015625 C 18.222656 0.0546875 17.9375 0.078125 17.65625 0.078125 C 17.582031 0.078125 17.492188 0.078125 17.390625 0.078125 C 17.285156 0.078125 17.175781 0.0703125 17.0625 0.0625 L 16.265625 0.0625 C 15.285156 0.0625 14.46875 -0.328125 13.8125 -1.109375 L 5.140625 -11.53125 C 5.140625 -10.882812 5.140625 -10.191406 5.140625 -9.453125 C 5.140625 -8.722656 5.140625 -8.019531 5.140625 -7.34375 C 5.140625 -6.664062 5.140625 -6.066406 5.140625 -5.546875 C 5.140625 -5.035156 5.140625 -4.675781 5.140625 -4.46875 C 5.140625 -3.914062 5.238281 -3.472656 5.4375 -3.140625 C 5.632812 -2.816406 5.859375 -2.550781 6.109375 -2.34375 C 6.367188 -2.132812 6.59375 -1.929688 6.78125 -1.734375 C 6.96875 -1.535156 7.050781 -1.296875 7.03125 -1.015625 C 7.007812 -0.753906 6.875 -0.546875 6.625 -0.390625 C 6.375 -0.242188 6.066406 -0.132812 5.703125 -0.0625 C 5.347656 0 4.992188 0.0351562 4.640625 0.046875 C 4.296875 0.0664062 4.019531 0.078125 3.8125 0.078125 C 3.550781 0.078125 3.171875 0.0507812 2.671875 0 C 2.171875 -0.0390625 1.707031 -0.140625 1.28125 -0.296875 C 0.863281 -0.453125 0.625 -0.691406 0.5625 -1.015625 C 0.53125 -1.296875 0.609375 -1.535156 0.796875 -1.734375 C 0.984375 -1.929688 1.210938 -2.140625 1.484375 -2.359375 C 1.753906 -2.578125 1.992188 -2.847656 2.203125 -3.171875 C 2.410156 -3.503906 2.515625 -3.9375 2.515625 -4.46875 L 2.515625 -14.125 C 2.515625 -14.65625 2.410156 -15.082031 2.203125 -15.40625 C 1.992188 -15.738281 1.753906 -16.007812 1.484375 -16.21875 C 1.210938 -16.4375 0.984375 -16.644531 0.796875 -16.84375 C 0.609375 -17.039062 0.53125 -17.285156 0.5625 -17.578125 C 0.601562 -17.835938 0.765625 -18.039062 1.046875 -18.1875 C 1.328125 -18.34375 1.660156 -18.453125 2.046875 -18.515625 C 2.429688 -18.578125 2.804688 -18.617188 3.171875 -18.640625 C 3.546875 -18.660156 3.835938 -18.671875 4.046875 -18.671875 C 4.046875 -18.671875 4.179688 -18.671875 4.453125 -18.671875 C 4.722656 -18.671875 5.046875 -18.671875 5.421875 -18.671875 C 5.609375 -18.671875 5.804688 -18.671875 6.015625 -18.671875 C 6.222656 -18.671875 6.421875 -18.671875 6.609375 -18.671875 C 7.648438 -18.671875 8.476562 -18.265625 9.09375 -17.453125 C 9.84375 -16.535156 10.640625 -15.566406 11.484375 -14.546875 C 12.335938 -13.523438 13.179688 -12.515625 14.015625 -11.515625 C 14.859375 -10.523438 15.628906 -9.597656 16.328125 -8.734375 L 16.328125 -14.125 C 16.328125 -14.65625 16.222656 -15.078125 16.015625 -15.390625 C 15.804688 -15.710938 15.566406 -15.984375 15.296875 -16.203125 C 15.023438 -16.421875 14.796875 -16.625 14.609375 -16.8125 C 14.421875 -17 14.351562 -17.234375 14.40625 -17.515625 C 14.46875 -17.859375 14.707031 -18.101562 15.125 -18.25 C 15.550781 -18.394531 16.015625 -18.488281 16.515625 -18.53125 C 17.015625 -18.582031 17.394531 -18.609375 17.65625 -18.609375 C 17.863281 -18.609375 18.132812 -18.597656 18.46875 -18.578125 C 18.8125 -18.566406 19.160156 -18.523438 19.515625 -18.453125 C 19.878906 -18.390625 20.191406 -18.28125 20.453125 -18.125 C 20.710938 -17.976562 20.851562 -17.773438 20.875 -17.515625 Z M 20.875 -17.515625 "/></g></g><g style="fill:#69331b;fill-opacity:0.4;"><g transform="translate(207.145033, 242.821491)"><path style="stroke:none" d="M 12.9375 -1.546875 C 13.5 -1.679688 13.921875 -2.023438 14.203125 -2.578125 C 14.492188 -3.140625 14.660156 -3.835938 14.703125 -4.671875 C 14.753906 -5.515625 14.71875 -6.421875 14.59375 -7.390625 C 14.46875 -8.359375 14.285156 -9.3125 14.046875 -10.25 C 13.835938 -11.0625 13.578125 -11.875 13.265625 -12.6875 C 12.953125 -13.507812 12.59375 -14.257812 12.1875 -14.9375 C 11.78125 -15.625 11.332031 -16.164062 10.84375 -16.5625 C 10.351562 -16.96875 9.835938 -17.171875 9.296875 -17.171875 C 9.109375 -17.171875 8.910156 -17.144531 8.703125 -17.09375 C 8.117188 -16.925781 7.691406 -16.550781 7.421875 -15.96875 C 7.160156 -15.394531 7.019531 -14.6875 7 -13.84375 C 6.988281 -13.007812 7.054688 -12.113281 7.203125 -11.15625 C 7.359375 -10.195312 7.554688 -9.25 7.796875 -8.3125 C 8.117188 -7.082031 8.515625 -5.945312 8.984375 -4.90625 C 9.453125 -3.875 9.984375 -3.046875 10.578125 -2.421875 C 11.171875 -1.804688 11.804688 -1.5 12.484375 -1.5 C 12.554688 -1.5 12.628906 -1.503906 12.703125 -1.515625 C 12.785156 -1.523438 12.863281 -1.535156 12.9375 -1.546875 Z M 10.796875 -19.125 C 12.203125 -19.125 13.53125 -18.890625 14.78125 -18.421875 C 16.039062 -17.953125 17.148438 -17.273438 18.109375 -16.390625 C 19.066406 -15.515625 19.816406 -14.476562 20.359375 -13.28125 C 20.910156 -12.09375 21.1875 -10.765625 21.1875 -9.296875 C 21.1875 -7.828125 20.910156 -6.492188 20.359375 -5.296875 C 19.816406 -4.097656 19.066406 -3.0625 18.109375 -2.1875 C 17.148438 -1.3125 16.039062 -0.640625 14.78125 -0.171875 C 13.53125 0.296875 12.203125 0.53125 10.796875 0.53125 C 9.378906 0.53125 8.046875 0.296875 6.796875 -0.171875 C 5.554688 -0.640625 4.457031 -1.304688 3.5 -2.171875 C 2.539062 -3.035156 1.785156 -4.070312 1.234375 -5.28125 C 0.691406 -6.488281 0.421875 -7.828125 0.421875 -9.296875 C 0.421875 -10.765625 0.691406 -12.097656 1.234375 -13.296875 C 1.785156 -14.503906 2.539062 -15.539062 3.5 -16.40625 C 4.457031 -17.28125 5.554688 -17.953125 6.796875 -18.421875 C 8.046875 -18.890625 9.378906 -19.125 10.796875 -19.125 Z M 10.796875 -19.125 "/></g></g><g style="fill:#69331b;fill-opacity:0.4;"><g transform="translate(241.046066, 242.821491)"><path style="stroke:none" d="M 1.546875 -10.765625 C 1.253906 -10.742188 1.015625 -10.894531 0.828125 -11.21875 C 0.648438 -11.550781 0.523438 -11.953125 0.453125 -12.421875 C 0.378906 -12.898438 0.332031 -13.351562 0.3125 -13.78125 C 0.289062 -14.21875 0.28125 -14.550781 0.28125 -14.78125 C 0.28125 -15.082031 0.300781 -15.484375 0.34375 -15.984375 C 0.394531 -16.492188 0.5 -16.976562 0.65625 -17.4375 C 0.820312 -17.90625 1.070312 -18.203125 1.40625 -18.328125 C 1.5625 -18.390625 1.929688 -18.445312 2.515625 -18.5 C 3.097656 -18.5625 3.828125 -18.601562 4.703125 -18.625 C 5.578125 -18.65625 6.539062 -18.679688 7.59375 -18.703125 C 8.65625 -18.722656 9.722656 -18.734375 10.796875 -18.734375 C 12.171875 -18.734375 13.484375 -18.71875 14.734375 -18.6875 C 15.984375 -18.65625 17.039062 -18.613281 17.90625 -18.5625 C 18.769531 -18.519531 19.300781 -18.453125 19.5 -18.359375 C 19.832031 -18.234375 20.070312 -17.9375 20.21875 -17.46875 C 20.375 -17.007812 20.460938 -16.519531 20.484375 -16 C 20.515625 -15.488281 20.53125 -15.082031 20.53125 -14.78125 C 20.53125 -14.550781 20.519531 -14.21875 20.5 -13.78125 C 20.488281 -13.351562 20.441406 -12.898438 20.359375 -12.421875 C 20.285156 -11.953125 20.164062 -11.550781 20 -11.21875 C 19.832031 -10.894531 19.585938 -10.742188 19.265625 -10.765625 C 18.890625 -10.785156 18.613281 -11 18.4375 -11.40625 C 18.269531 -11.820312 18.140625 -12.335938 18.046875 -12.953125 C 17.953125 -13.566406 17.835938 -14.175781 17.703125 -14.78125 C 17.578125 -15.394531 17.367188 -15.90625 17.078125 -16.3125 C 16.785156 -16.71875 16.335938 -16.921875 15.734375 -16.921875 L 15.078125 -16.921875 C 14.609375 -16.867188 14.269531 -16.644531 14.0625 -16.25 C 13.851562 -15.851562 13.75 -15.15625 13.75 -14.15625 L 13.75 -4.46875 C 13.75 -3.914062 13.84375 -3.472656 14.03125 -3.140625 C 14.226562 -2.816406 14.441406 -2.546875 14.671875 -2.328125 C 14.910156 -2.109375 15.117188 -1.898438 15.296875 -1.703125 C 15.472656 -1.503906 15.546875 -1.265625 15.515625 -0.984375 C 15.492188 -0.722656 15.257812 -0.519531 14.8125 -0.375 C 14.375 -0.238281 13.851562 -0.132812 13.25 -0.0625 C 12.644531 0 12.078125 0.0351562 11.546875 0.046875 C 11.023438 0.0664062 10.660156 0.078125 10.453125 0.078125 C 10.242188 0.078125 9.875 0.0664062 9.34375 0.046875 C 8.820312 0.0351562 8.253906 -0.00390625 7.640625 -0.078125 C 7.023438 -0.160156 6.492188 -0.269531 6.046875 -0.40625 C 5.597656 -0.550781 5.351562 -0.742188 5.3125 -0.984375 C 5.269531 -1.265625 5.332031 -1.507812 5.5 -1.71875 C 5.675781 -1.925781 5.890625 -2.140625 6.140625 -2.359375 C 6.398438 -2.578125 6.628906 -2.847656 6.828125 -3.171875 C 7.023438 -3.503906 7.125 -3.9375 7.125 -4.46875 L 7.125 -14.125 C 7.125 -15.238281 7.003906 -15.984375 6.765625 -16.359375 C 6.523438 -16.734375 6.113281 -16.921875 5.53125 -16.921875 L 5.109375 -16.921875 C 4.503906 -16.921875 4.050781 -16.71875 3.75 -16.3125 C 3.457031 -15.90625 3.242188 -15.394531 3.109375 -14.78125 C 2.972656 -14.175781 2.859375 -13.566406 2.765625 -12.953125 C 2.671875 -12.335938 2.539062 -11.820312 2.375 -11.40625 C 2.207031 -11 1.929688 -10.785156 1.546875 -10.765625 Z M 1.546875 -10.765625 "/></g></g><g style="fill:#69331b;fill-opacity:0.4;"><g transform="translate(274.156167, 242.821491)"><path style="stroke:none" d="M 0.5625 -0.984375 C 0.53125 -1.265625 0.597656 -1.507812 0.765625 -1.71875 C 0.929688 -1.925781 1.140625 -2.140625 1.390625 -2.359375 C 1.648438 -2.578125 1.878906 -2.847656 2.078125 -3.171875 C 2.273438 -3.503906 2.375 -3.9375 2.375 -4.46875 L 2.375 -14.15625 C 2.375 -14.675781 2.273438 -15.101562 2.078125 -15.4375 C 1.878906 -15.769531 1.648438 -16.039062 1.390625 -16.25 C 1.140625 -16.46875 0.929688 -16.675781 0.765625 -16.875 C 0.597656 -17.070312 0.53125 -17.3125 0.5625 -17.59375 C 0.601562 -17.769531 0.804688 -17.914062 1.171875 -18.03125 C 1.535156 -18.15625 1.992188 -18.257812 2.546875 -18.34375 C 3.109375 -18.425781 3.691406 -18.488281 4.296875 -18.53125 C 4.910156 -18.582031 5.488281 -18.617188 6.03125 -18.640625 C 6.582031 -18.660156 7.03125 -18.671875 7.375 -18.671875 L 7.40625 -18.703125 C 7.53125 -18.703125 7.695312 -18.703125 7.90625 -18.703125 C 8.113281 -18.703125 8.347656 -18.703125 8.609375 -18.703125 C 9.253906 -18.703125 10.003906 -18.695312 10.859375 -18.6875 C 11.710938 -18.675781 12.578125 -18.65625 13.453125 -18.625 C 14.335938 -18.601562 15.117188 -18.554688 15.796875 -18.484375 C 16.472656 -18.421875 16.941406 -18.332031 17.203125 -18.21875 C 17.546875 -18.070312 17.785156 -17.832031 17.921875 -17.5 C 18.066406 -17.164062 18.144531 -16.804688 18.15625 -16.421875 C 18.175781 -16.035156 18.1875 -15.691406 18.1875 -15.390625 C 18.1875 -15.109375 18.175781 -14.742188 18.15625 -14.296875 C 18.144531 -13.859375 18.0625 -13.46875 17.90625 -13.125 C 17.757812 -12.789062 17.476562 -12.625 17.0625 -12.625 C 16.757812 -12.625 16.519531 -12.769531 16.34375 -13.0625 C 16.164062 -13.351562 16 -13.710938 15.84375 -14.140625 C 15.695312 -14.566406 15.515625 -14.988281 15.296875 -15.40625 C 15.078125 -15.832031 14.789062 -16.191406 14.4375 -16.484375 C 14.082031 -16.773438 13.601562 -16.921875 13 -16.921875 L 10.8125 -16.921875 C 10.25 -16.898438 9.804688 -16.703125 9.484375 -16.328125 C 9.171875 -15.953125 9.015625 -15.226562 9.015625 -14.15625 L 9.015625 -9.921875 L 9.0625 -9.921875 C 9.644531 -9.921875 10.109375 -10.019531 10.453125 -10.21875 C 10.796875 -10.414062 11.0625 -10.660156 11.25 -10.953125 C 11.4375 -11.242188 11.59375 -11.53125 11.71875 -11.8125 C 11.851562 -12.09375 11.992188 -12.332031 12.140625 -12.53125 C 12.296875 -12.726562 12.523438 -12.828125 12.828125 -12.828125 C 13.203125 -12.828125 13.445312 -12.703125 13.5625 -12.453125 C 13.675781 -12.210938 13.734375 -11.914062 13.734375 -11.5625 C 13.734375 -11.21875 13.734375 -10.894531 13.734375 -10.59375 L 13.734375 -7.4375 C 13.734375 -7.132812 13.734375 -6.8125 13.734375 -6.46875 C 13.734375 -6.125 13.675781 -5.828125 13.5625 -5.578125 C 13.445312 -5.335938 13.203125 -5.21875 12.828125 -5.21875 C 12.523438 -5.21875 12.296875 -5.316406 12.140625 -5.515625 C 11.992188 -5.710938 11.851562 -5.953125 11.71875 -6.234375 C 11.59375 -6.523438 11.4375 -6.8125 11.25 -7.09375 C 11.0625 -7.375 10.800781 -7.613281 10.46875 -7.8125 C 10.132812 -8.007812 9.664062 -8.109375 9.0625 -8.109375 L 9.015625 -8.109375 L 9.015625 -4.46875 C 9.015625 -3.445312 9.15625 -2.738281 9.4375 -2.34375 C 9.71875 -1.945312 10.113281 -1.726562 10.625 -1.6875 L 13.84375 -1.6875 C 14.445312 -1.6875 14.925781 -1.832031 15.28125 -2.125 C 15.632812 -2.425781 15.921875 -2.785156 16.140625 -3.203125 C 16.359375 -3.628906 16.539062 -4.050781 16.6875 -4.46875 C 16.84375 -4.894531 17.007812 -5.253906 17.1875 -5.546875 C 17.363281 -5.835938 17.601562 -5.984375 17.90625 -5.984375 C 18.320312 -5.984375 18.601562 -5.8125 18.75 -5.46875 C 18.90625 -5.132812 18.992188 -4.75 19.015625 -4.3125 C 19.035156 -3.882812 19.046875 -3.519531 19.046875 -3.21875 C 19.046875 -2.914062 19.03125 -2.570312 19 -2.1875 C 18.96875 -1.800781 18.882812 -1.441406 18.75 -1.109375 C 18.625 -0.785156 18.390625 -0.546875 18.046875 -0.390625 C 17.859375 -0.316406 17.484375 -0.25 16.921875 -0.1875 C 16.359375 -0.132812 15.691406 -0.0859375 14.921875 -0.046875 C 14.160156 -0.015625 13.378906 0.0078125 12.578125 0.03125 C 11.785156 0.0507812 11.039062 0.0625 10.34375 0.0625 C 9.644531 0.0703125 9.078125 0.078125 8.640625 0.078125 C 8.210938 0.078125 7.988281 0.078125 7.96875 0.078125 L 7.9375 0.078125 C 7.5625 0.078125 7.070312 0.0625 6.46875 0.03125 C 5.863281 0.0078125 5.226562 -0.0195312 4.5625 -0.0625 C 3.894531 -0.113281 3.265625 -0.175781 2.671875 -0.25 C 2.078125 -0.332031 1.585938 -0.429688 1.203125 -0.546875 C 0.816406 -0.671875 0.601562 -0.816406 0.5625 -0.984375 Z M 0.5625 -0.984375 "/></g></g><g style="fill:#69331b;fill-opacity:0.4;"><g transform="translate(305.91036, 242.821491)"><path style="stroke:none" d="M 19.796875 -5.625 C 19.878906 -4.25 19.53125 -3.101562 18.75 -2.1875 C 17.96875 -1.269531 16.863281 -0.578125 15.4375 -0.109375 C 14.019531 0.359375 12.382812 0.59375 10.53125 0.59375 C 9.738281 0.59375 8.828125 0.515625 7.796875 0.359375 C 6.773438 0.210938 5.753906 -0.03125 4.734375 -0.375 C 3.722656 -0.726562 2.835938 -1.195312 2.078125 -1.78125 C 1.316406 -2.363281 0.800781 -3.085938 0.53125 -3.953125 C 0.320312 -4.722656 0.390625 -5.425781 0.734375 -6.0625 C 1.085938 -6.707031 1.679688 -7.097656 2.515625 -7.234375 C 2.648438 -7.253906 2.769531 -7.265625 2.875 -7.265625 C 2.988281 -7.273438 3.101562 -7.28125 3.21875 -7.28125 C 4.03125 -7.28125 4.691406 -7.019531 5.203125 -6.5 C 5.722656 -5.988281 6.078125 -5.242188 6.265625 -4.265625 C 6.472656 -3.117188 6.929688 -2.269531 7.640625 -1.71875 C 8.347656 -1.175781 9.265625 -0.90625 10.390625 -0.90625 C 11.222656 -0.90625 11.863281 -1.085938 12.3125 -1.453125 C 12.769531 -1.816406 13.023438 -2.238281 13.078125 -2.71875 C 13.140625 -3.21875 13.03125 -3.671875 12.75 -4.078125 C 12.476562 -4.484375 12.117188 -4.832031 11.671875 -5.125 C 11.234375 -5.414062 10.796875 -5.660156 10.359375 -5.859375 C 9.929688 -6.054688 9.585938 -6.222656 9.328125 -6.359375 C 9.148438 -6.453125 8.84375 -6.601562 8.40625 -6.8125 C 7.976562 -7.03125 7.507812 -7.265625 7 -7.515625 C 6.5 -7.773438 6.050781 -8 5.65625 -8.1875 C 5.21875 -8.394531 4.71875 -8.664062 4.15625 -9 C 3.601562 -9.34375 3.078125 -9.757812 2.578125 -10.25 C 2.085938 -10.738281 1.703125 -11.320312 1.421875 -12 C 1.148438 -12.675781 1.082031 -13.457031 1.21875 -14.34375 C 1.363281 -15.25 1.796875 -16.0625 2.515625 -16.78125 C 3.234375 -17.507812 4.1875 -18.085938 5.375 -18.515625 C 6.570312 -18.941406 7.992188 -19.15625 9.640625 -19.15625 C 9.828125 -19.15625 10.019531 -19.15625 10.21875 -19.15625 C 10.414062 -19.15625 10.609375 -19.144531 10.796875 -19.125 C 12.265625 -19.03125 13.519531 -18.769531 14.5625 -18.34375 C 15.601562 -17.925781 16.441406 -17.421875 17.078125 -16.828125 C 17.710938 -16.234375 18.113281 -15.625 18.28125 -15 C 18.40625 -14.582031 18.410156 -14.15625 18.296875 -13.71875 C 18.191406 -13.289062 17.972656 -12.929688 17.640625 -12.640625 C 17.304688 -12.347656 16.859375 -12.203125 16.296875 -12.203125 C 16.203125 -12.203125 16.101562 -12.207031 16 -12.21875 C 15.894531 -12.226562 15.796875 -12.242188 15.703125 -12.265625 C 15.046875 -12.378906 14.53125 -12.65625 14.15625 -13.09375 C 13.789062 -13.53125 13.515625 -14.019531 13.328125 -14.5625 C 13.140625 -15.113281 12.972656 -15.585938 12.828125 -15.984375 C 12.617188 -16.609375 12.28125 -17.066406 11.8125 -17.359375 C 11.351562 -17.648438 10.816406 -17.804688 10.203125 -17.828125 C 9.671875 -17.828125 9.164062 -17.71875 8.6875 -17.5 C 8.207031 -17.28125 7.921875 -16.867188 7.828125 -16.265625 C 7.753906 -15.671875 7.90625 -15.175781 8.28125 -14.78125 C 8.65625 -14.382812 9.132812 -14.015625 9.71875 -13.671875 C 9.882812 -13.554688 10.160156 -13.390625 10.546875 -13.171875 C 10.929688 -12.960938 11.378906 -12.710938 11.890625 -12.421875 C 12.398438 -12.140625 12.914062 -11.863281 13.4375 -11.59375 C 13.96875 -11.320312 14.441406 -11.070312 14.859375 -10.84375 C 15.515625 -10.507812 16.210938 -10.101562 16.953125 -9.625 C 17.703125 -9.144531 18.347656 -8.578125 18.890625 -7.921875 C 19.441406 -7.273438 19.742188 -6.507812 19.796875 -5.625 Z M 19.796875 -5.625 "/></g></g><g style="fill:#ffffff;fill-opacity:1;"><g transform="translate(171.290587, 240.698595)"><path style="stroke:none" d="M 20.875 -17.515625 C 20.894531 -17.234375 20.8125 -17 20.625 -16.8125 C 20.4375 -16.625 20.210938 -16.425781 19.953125 -16.21875 C 19.703125 -16.007812 19.476562 -15.742188 19.28125 -15.421875 C 19.082031 -15.097656 18.984375 -14.664062 18.984375 -14.125 C 18.984375 -13.875 18.984375 -13.425781 18.984375 -12.78125 C 18.984375 -12.132812 18.984375 -11.390625 18.984375 -10.546875 C 18.984375 -9.710938 18.984375 -8.875 18.984375 -8.03125 C 18.984375 -7.195312 18.984375 -6.453125 18.984375 -5.796875 C 18.984375 -5.148438 18.984375 -4.707031 18.984375 -4.46875 C 18.984375 -3.726562 19.039062 -3.175781 19.15625 -2.8125 C 19.28125 -2.457031 19.398438 -2.160156 19.515625 -1.921875 C 19.628906 -1.691406 19.671875 -1.390625 19.640625 -1.015625 C 19.617188 -0.660156 19.5 -0.40625 19.28125 -0.25 C 19.0625 -0.101562 18.804688 -0.015625 18.515625 0.015625 C 18.222656 0.0546875 17.9375 0.078125 17.65625 0.078125 C 17.582031 0.078125 17.492188 0.078125 17.390625 0.078125 C 17.285156 0.078125 17.175781 0.0703125 17.0625 0.0625 L 16.265625 0.0625 C 15.285156 0.0625 14.46875 -0.328125 13.8125 -1.109375 L 5.140625 -11.53125 C 5.140625 -10.882812 5.140625 -10.191406 5.140625 -9.453125 C 5.140625 -8.722656 5.140625 -8.019531 5.140625 -7.34375 C 5.140625 -6.664062 5.140625 -6.066406 5.140625 -5.546875 C 5.140625 -5.035156 5.140625 -4.675781 5.140625 -4.46875 C 5.140625 -3.914062 5.238281 -3.472656 5.4375 -3.140625 C 5.632812 -2.816406 5.859375 -2.550781 6.109375 -2.34375 C 6.367188 -2.132812 6.59375 -1.929688 6.78125 -1.734375 C 6.96875 -1.535156 7.050781 -1.296875 7.03125 -1.015625 C 7.007812 -0.753906 6.875 -0.546875 6.625 -0.390625 C 6.375 -0.242188 6.066406 -0.132812 5.703125 -0.0625 C 5.347656 0 4.992188 0.0351562 4.640625 0.046875 C 4.296875 0.0664062 4.019531 0.078125 3.8125 0.078125 C 3.550781 0.078125 3.171875 0.0507812 2.671875 0 C 2.171875 -0.0390625 1.707031 -0.140625 1.28125 -0.296875 C 0.863281 -0.453125 0.625 -0.691406 0.5625 -1.015625 C 0.53125 -1.296875 0.609375 -1.535156 0.796875 -1.734375 C 0.984375 -1.929688 1.210938 -2.140625 1.484375 -2.359375 C 1.753906 -2.578125 1.992188 -2.847656 2.203125 -3.171875 C 2.410156 -3.503906 2.515625 -3.9375 2.515625 -4.46875 L 2.515625 -14.125 C 2.515625 -14.65625 2.410156 -15.082031 2.203125 -15.40625 C 1.992188 -15.738281 1.753906 -16.007812 1.484375 -16.21875 C 1.210938 -16.4375 0.984375 -16.644531 0.796875 -16.84375 C 0.609375 -17.039062 0.53125 -17.285156 0.5625 -17.578125 C 0.601562 -17.835938 0.765625 -18.039062 1.046875 -18.1875 C 1.328125 -18.34375 1.660156 -18.453125 2.046875 -18.515625 C 2.429688 -18.578125 2.804688 -18.617188 3.171875 -18.640625 C 3.546875 -18.660156 3.835938 -18.671875 4.046875 -18.671875 C 4.046875 -18.671875 4.179688 -18.671875 4.453125 -18.671875 C 4.722656 -18.671875 5.046875 -18.671875 5.421875 -18.671875 C 5.609375 -18.671875 5.804688 -18.671875 6.015625 -18.671875 C 6.222656 -18.671875 6.421875 -18.671875 6.609375 -18.671875 C 7.648438 -18.671875 8.476562 -18.265625 9.09375 -17.453125 C 9.84375 -16.535156 10.640625 -15.566406 11.484375 -14.546875 C 12.335938 -13.523438 13.179688 -12.515625 14.015625 -11.515625 C 14.859375 -10.523438 15.628906 -9.597656 16.328125 -8.734375 L 16.328125 -14.125 C 16.328125 -14.65625 16.222656 -15.078125 16.015625 -15.390625 C 15.804688 -15.710938 15.566406 -15.984375 15.296875 -16.203125 C 15.023438 -16.421875 14.796875 -16.625 14.609375 -16.8125 C 14.421875 -17 14.351562 -17.234375 14.40625 -17.515625 C 14.46875 -17.859375 14.707031 -18.101562 15.125 -18.25 C 15.550781 -18.394531 16.015625 -18.488281 16.515625 -18.53125 C 17.015625 -18.582031 17.394531 -18.609375 17.65625 -18.609375 C 17.863281 -18.609375 18.132812 -18.597656 18.46875 -18.578125 C 18.8125 -18.566406 19.160156 -18.523438 19.515625 -18.453125 C 19.878906 -18.390625 20.191406 -18.28125 20.453125 -18.125 C 20.710938 -17.976562 20.851562 -17.773438 20.875 -17.515625 Z M 20.875 -17.515625 "/></g></g><g style="fill:#ffffff;fill-opacity:1;"><g transform="translate(205.022138, 240.698595)"><path style="stroke:none" d="M 12.9375 -1.546875 C 13.5 -1.679688 13.921875 -2.023438 14.203125 -2.578125 C 14.492188 -3.140625 14.660156 -3.835938 14.703125 -4.671875 C 14.753906 -5.515625 14.71875 -6.421875 14.59375 -7.390625 C 14.46875 -8.359375 14.285156 -9.3125 14.046875 -10.25 C 13.835938 -11.0625 13.578125 -11.875 13.265625 -12.6875 C 12.953125 -13.507812 12.59375 -14.257812 12.1875 -14.9375 C 11.78125 -15.625 11.332031 -16.164062 10.84375 -16.5625 C 10.351562 -16.96875 9.835938 -17.171875 9.296875 -17.171875 C 9.109375 -17.171875 8.910156 -17.144531 8.703125 -17.09375 C 8.117188 -16.925781 7.691406 -16.550781 7.421875 -15.96875 C 7.160156 -15.394531 7.019531 -14.6875 7 -13.84375 C 6.988281 -13.007812 7.054688 -12.113281 7.203125 -11.15625 C 7.359375 -10.195312 7.554688 -9.25 7.796875 -8.3125 C 8.117188 -7.082031 8.515625 -5.945312 8.984375 -4.90625 C 9.453125 -3.875 9.984375 -3.046875 10.578125 -2.421875 C 11.171875 -1.804688 11.804688 -1.5 12.484375 -1.5 C 12.554688 -1.5 12.628906 -1.503906 12.703125 -1.515625 C 12.785156 -1.523438 12.863281 -1.535156 12.9375 -1.546875 Z M 10.796875 -19.125 C 12.203125 -19.125 13.53125 -18.890625 14.78125 -18.421875 C 16.039062 -17.953125 17.148438 -17.273438 18.109375 -16.390625 C 19.066406 -15.515625 19.816406 -14.476562 20.359375 -13.28125 C 20.910156 -12.09375 21.1875 -10.765625 21.1875 -9.296875 C 21.1875 -7.828125 20.910156 -6.492188 20.359375 -5.296875 C 19.816406 -4.097656 19.066406 -3.0625 18.109375 -2.1875 C 17.148438 -1.3125 16.039062 -0.640625 14.78125 -0.171875 C 13.53125 0.296875 12.203125 0.53125 10.796875 0.53125 C 9.378906 0.53125 8.046875 0.296875 6.796875 -0.171875 C 5.554688 -0.640625 4.457031 -1.304688 3.5 -2.171875 C 2.539062 -3.035156 1.785156 -4.070312 1.234375 -5.28125 C 0.691406 -6.488281 0.421875 -7.828125 0.421875 -9.296875 C 0.421875 -10.765625 0.691406 -12.097656 1.234375 -13.296875 C 1.785156 -14.503906 2.539062 -15.539062 3.5 -16.40625 C 4.457031 -17.28125 5.554688 -17.953125 6.796875 -18.421875 C 8.046875 -18.890625 9.378906 -19.125 10.796875 -19.125 Z M 10.796875 -19.125 "/></g></g><g style="fill:#ffffff;fill-opacity:1;"><g transform="translate(238.92317, 240.698595)"><path style="stroke:none" d="M 1.546875 -10.765625 C 1.253906 -10.742188 1.015625 -10.894531 0.828125 -11.21875 C 0.648438 -11.550781 0.523438 -11.953125 0.453125 -12.421875 C 0.378906 -12.898438 0.332031 -13.351562 0.3125 -13.78125 C 0.289062 -14.21875 0.28125 -14.550781 0.28125 -14.78125 C 0.28125 -15.082031 0.300781 -15.484375 0.34375 -15.984375 C 0.394531 -16.492188 0.5 -16.976562 0.65625 -17.4375 C 0.820312 -17.90625 1.070312 -18.203125 1.40625 -18.328125 C 1.5625 -18.390625 1.929688 -18.445312 2.515625 -18.5 C 3.097656 -18.5625 3.828125 -18.601562 4.703125 -18.625 C 5.578125 -18.65625 6.539062 -18.679688 7.59375 -18.703125 C 8.65625 -18.722656 9.722656 -18.734375 10.796875 -18.734375 C 12.171875 -18.734375 13.484375 -18.71875 14.734375 -18.6875 C 15.984375 -18.65625 17.039062 -18.613281 17.90625 -18.5625 C 18.769531 -18.519531 19.300781 -18.453125 19.5 -18.359375 C 19.832031 -18.234375 20.070312 -17.9375 20.21875 -17.46875 C 20.375 -17.007812 20.460938 -16.519531 20.484375 -16 C 20.515625 -15.488281 20.53125 -15.082031 20.53125 -14.78125 C 20.53125 -14.550781 20.519531 -14.21875 20.5 -13.78125 C 20.488281 -13.351562 20.441406 -12.898438 20.359375 -12.421875 C 20.285156 -11.953125 20.164062 -11.550781 20 -11.21875 C 19.832031 -10.894531 19.585938 -10.742188 19.265625 -10.765625 C 18.890625 -10.785156 18.613281 -11 18.4375 -11.40625 C 18.269531 -11.820312 18.140625 -12.335938 18.046875 -12.953125 C 17.953125 -13.566406 17.835938 -14.175781 17.703125 -14.78125 C 17.578125 -15.394531 17.367188 -15.90625 17.078125 -16.3125 C 16.785156 -16.71875 16.335938 -16.921875 15.734375 -16.921875 L 15.078125 -16.921875 C 14.609375 -16.867188 14.269531 -16.644531 14.0625 -16.25 C 13.851562 -15.851562 13.75 -15.15625 13.75 -14.15625 L 13.75 -4.46875 C 13.75 -3.914062 13.84375 -3.472656 14.03125 -3.140625 C 14.226562 -2.816406 14.441406 -2.546875 14.671875 -2.328125 C 14.910156 -2.109375 15.117188 -1.898438 15.296875 -1.703125 C 15.472656 -1.503906 15.546875 -1.265625 15.515625 -0.984375 C 15.492188 -0.722656 15.257812 -0.519531 14.8125 -0.375 C 14.375 -0.238281 13.851562 -0.132812 13.25 -0.0625 C 12.644531 0 12.078125 0.0351562 11.546875 0.046875 C 11.023438 0.0664062 10.660156 0.078125 10.453125 0.078125 C 10.242188 0.078125 9.875 0.0664062 9.34375 0.046875 C 8.820312 0.0351562 8.253906 -0.00390625 7.640625 -0.078125 C 7.023438 -0.160156 6.492188 -0.269531 6.046875 -0.40625 C 5.597656 -0.550781 5.351562 -0.742188 5.3125 -0.984375 C 5.269531 -1.265625 5.332031 -1.507812 5.5 -1.71875 C 5.675781 -1.925781 5.890625 -2.140625 6.140625 -2.359375 C 6.398438 -2.578125 6.628906 -2.847656 6.828125 -3.171875 C 7.023438 -3.503906 7.125 -3.9375 7.125 -4.46875 L 7.125 -14.125 C 7.125 -15.238281 7.003906 -15.984375 6.765625 -16.359375 C 6.523438 -16.734375 6.113281 -16.921875 5.53125 -16.921875 L 5.109375 -16.921875 C 4.503906 -16.921875 4.050781 -16.71875 3.75 -16.3125 C 3.457031 -15.90625 3.242188 -15.394531 3.109375 -14.78125 C 2.972656 -14.175781 2.859375 -13.566406 2.765625 -12.953125 C 2.671875 -12.335938 2.539062 -11.820312 2.375 -11.40625 C 2.207031 -11 1.929688 -10.785156 1.546875 -10.765625 Z M 1.546875 -10.765625 "/></g></g><g style="fill:#ffffff;fill-opacity:1;"><g transform="translate(272.033271, 240.698595)"><path style="stroke:none" d="M 0.5625 -0.984375 C 0.53125 -1.265625 0.597656 -1.507812 0.765625 -1.71875 C 0.929688 -1.925781 1.140625 -2.140625 1.390625 -2.359375 C 1.648438 -2.578125 1.878906 -2.847656 2.078125 -3.171875 C 2.273438 -3.503906 2.375 -3.9375 2.375 -4.46875 L 2.375 -14.15625 C 2.375 -14.675781 2.273438 -15.101562 2.078125 -15.4375 C 1.878906 -15.769531 1.648438 -16.039062 1.390625 -16.25 C 1.140625 -16.46875 0.929688 -16.675781 0.765625 -16.875 C 0.597656 -17.070312 0.53125 -17.3125 0.5625 -17.59375 C 0.601562 -17.769531 0.804688 -17.914062 1.171875 -18.03125 C 1.535156 -18.15625 1.992188 -18.257812 2.546875 -18.34375 C 3.109375 -18.425781 3.691406 -18.488281 4.296875 -18.53125 C 4.910156 -18.582031 5.488281 -18.617188 6.03125 -18.640625 C 6.582031 -18.660156 7.03125 -18.671875 7.375 -18.671875 L 7.40625 -18.703125 C 7.53125 -18.703125 7.695312 -18.703125 7.90625 -18.703125 C 8.113281 -18.703125 8.347656 -18.703125 8.609375 -18.703125 C 9.253906 -18.703125 10.003906 -18.695312 10.859375 -18.6875 C 11.710938 -18.675781 12.578125 -18.65625 13.453125 -18.625 C 14.335938 -18.601562 15.117188 -18.554688 15.796875 -18.484375 C 16.472656 -18.421875 16.941406 -18.332031 17.203125 -18.21875 C 17.546875 -18.070312 17.785156 -17.832031 17.921875 -17.5 C 18.066406 -17.164062 18.144531 -16.804688 18.15625 -16.421875 C 18.175781 -16.035156 18.1875 -15.691406 18.1875 -15.390625 C 18.1875 -15.109375 18.175781 -14.742188 18.15625 -14.296875 C 18.144531 -13.859375 18.0625 -13.46875 17.90625 -13.125 C 17.757812 -12.789062 17.476562 -12.625 17.0625 -12.625 C 16.757812 -12.625 16.519531 -12.769531 16.34375 -13.0625 C 16.164062 -13.351562 16 -13.710938 15.84375 -14.140625 C 15.695312 -14.566406 15.515625 -14.988281 15.296875 -15.40625 C 15.078125 -15.832031 14.789062 -16.191406 14.4375 -16.484375 C 14.082031 -16.773438 13.601562 -16.921875 13 -16.921875 L 10.8125 -16.921875 C 10.25 -16.898438 9.804688 -16.703125 9.484375 -16.328125 C 9.171875 -15.953125 9.015625 -15.226562 9.015625 -14.15625 L 9.015625 -9.921875 L 9.0625 -9.921875 C 9.644531 -9.921875 10.109375 -10.019531 10.453125 -10.21875 C 10.796875 -10.414062 11.0625 -10.660156 11.25 -10.953125 C 11.4375 -11.242188 11.59375 -11.53125 11.71875 -11.8125 C 11.851562 -12.09375 11.992188 -12.332031 12.140625 -12.53125 C 12.296875 -12.726562 12.523438 -12.828125 12.828125 -12.828125 C 13.203125 -12.828125 13.445312 -12.703125 13.5625 -12.453125 C 13.675781 -12.210938 13.734375 -11.914062 13.734375 -11.5625 C 13.734375 -11.21875 13.734375 -10.894531 13.734375 -10.59375 L 13.734375 -7.4375 C 13.734375 -7.132812 13.734375 -6.8125 13.734375 -6.46875 C 13.734375 -6.125 13.675781 -5.828125 13.5625 -5.578125 C 13.445312 -5.335938 13.203125 -5.21875 12.828125 -5.21875 C 12.523438 -5.21875 12.296875 -5.316406 12.140625 -5.515625 C 11.992188 -5.710938 11.851562 -5.953125 11.71875 -6.234375 C 11.59375 -6.523438 11.4375 -6.8125 11.25 -7.09375 C 11.0625 -7.375 10.800781 -7.613281 10.46875 -7.8125 C 10.132812 -8.007812 9.664062 -8.109375 9.0625 -8.109375 L 9.015625 -8.109375 L 9.015625 -4.46875 C 9.015625 -3.445312 9.15625 -2.738281 9.4375 -2.34375 C 9.71875 -1.945312 10.113281 -1.726562 10.625 -1.6875 L 13.84375 -1.6875 C 14.445312 -1.6875 14.925781 -1.832031 15.28125 -2.125 C 15.632812 -2.425781 15.921875 -2.785156 16.140625 -3.203125 C 16.359375 -3.628906 16.539062 -4.050781 16.6875 -4.46875 C 16.84375 -4.894531 17.007812 -5.253906 17.1875 -5.546875 C 17.363281 -5.835938 17.601562 -5.984375 17.90625 -5.984375 C 18.320312 -5.984375 18.601562 -5.8125 18.75 -5.46875 C 18.90625 -5.132812 18.992188 -4.75 19.015625 -4.3125 C 19.035156 -3.882812 19.046875 -3.519531 19.046875 -3.21875 C 19.046875 -2.914062 19.03125 -2.570312 19 -2.1875 C 18.96875 -1.800781 18.882812 -1.441406 18.75 -1.109375 C 18.625 -0.785156 18.390625 -0.546875 18.046875 -0.390625 C 17.859375 -0.316406 17.484375 -0.25 16.921875 -0.1875 C 16.359375 -0.132812 15.691406 -0.0859375 14.921875 -0.046875 C 14.160156 -0.015625 13.378906 0.0078125 12.578125 0.03125 C 11.785156 0.0507812 11.039062 0.0625 10.34375 0.0625 C 9.644531 0.0703125 9.078125 0.078125 8.640625 0.078125 C 8.210938 0.078125 7.988281 0.078125 7.96875 0.078125 L 7.9375 0.078125 C 7.5625 0.078125 7.070312 0.0625 6.46875 0.03125 C 5.863281 0.0078125 5.226562 -0.0195312 4.5625 -0.0625 C 3.894531 -0.113281 3.265625 -0.175781 2.671875 -0.25 C 2.078125 -0.332031 1.585938 -0.429688 1.203125 -0.546875 C 0.816406 -0.671875 0.601562 -0.816406 0.5625 -0.984375 Z M 0.5625 -0.984375 "/></g></g><g style="fill:#ffffff;fill-opacity:1;"><g transform="translate(303.787464, 240.698595)"><path style="stroke:none" d="M 19.796875 -5.625 C 19.878906 -4.25 19.53125 -3.101562 18.75 -2.1875 C 17.96875 -1.269531 16.863281 -0.578125 15.4375 -0.109375 C 14.019531 0.359375 12.382812 0.59375 10.53125 0.59375 C 9.738281 0.59375 8.828125 0.515625 7.796875 0.359375 C 6.773438 0.210938 5.753906 -0.03125 4.734375 -0.375 C 3.722656 -0.726562 2.835938 -1.195312 2.078125 -1.78125 C 1.316406 -2.363281 0.800781 -3.085938 0.53125 -3.953125 C 0.320312 -4.722656 0.390625 -5.425781 0.734375 -6.0625 C 1.085938 -6.707031 1.679688 -7.097656 2.515625 -7.234375 C 2.648438 -7.253906 2.769531 -7.265625 2.875 -7.265625 C 2.988281 -7.273438 3.101562 -7.28125 3.21875 -7.28125 C 4.03125 -7.28125 4.691406 -7.019531 5.203125 -6.5 C 5.722656 -5.988281 6.078125 -5.242188 6.265625 -4.265625 C 6.472656 -3.117188 6.929688 -2.269531 7.640625 -1.71875 C 8.347656 -1.175781 9.265625 -0.90625 10.390625 -0.90625 C 11.222656 -0.90625 11.863281 -1.085938 12.3125 -1.453125 C 12.769531 -1.816406 13.023438 -2.238281 13.078125 -2.71875 C 13.140625 -3.21875 13.03125 -3.671875 12.75 -4.078125 C 12.476562 -4.484375 12.117188 -4.832031 11.671875 -5.125 C 11.234375 -5.414062 10.796875 -5.660156 10.359375 -5.859375 C 9.929688 -6.054688 9.585938 -6.222656 9.328125 -6.359375 C 9.148438 -6.453125 8.84375 -6.601562 8.40625 -6.8125 C 7.976562 -7.03125 7.507812 -7.265625 7 -7.515625 C 6.5 -7.773438 6.050781 -8 5.65625 -8.1875 C 5.21875 -8.394531 4.71875 -8.664062 4.15625 -9 C 3.601562 -9.34375 3.078125 -9.757812 2.578125 -10.25 C 2.085938 -10.738281 1.703125 -11.320312 1.421875 -12 C 1.148438 -12.675781 1.082031 -13.457031 1.21875 -14.34375 C 1.363281 -15.25 1.796875 -16.0625 2.515625 -16.78125 C 3.234375 -17.507812 4.1875 -18.085938 5.375 -18.515625 C 6.570312 -18.941406 7.992188 -19.15625 9.640625 -19.15625 C 9.828125 -19.15625 10.019531 -19.15625 10.21875 -19.15625 C 10.414062 -19.15625 10.609375 -19.144531 10.796875 -19.125 C 12.265625 -19.03125 13.519531 -18.769531 14.5625 -18.34375 C 15.601562 -17.925781 16.441406 -17.421875 17.078125 -16.828125 C 17.710938 -16.234375 18.113281 -15.625 18.28125 -15 C 18.40625 -14.582031 18.410156 -14.15625 18.296875 -13.71875 C 18.191406 -13.289062 17.972656 -12.929688 17.640625 -12.640625 C 17.304688 -12.347656 16.859375 -12.203125 16.296875 -12.203125 C 16.203125 -12.203125 16.101562 -12.207031 16 -12.21875 C 15.894531 -12.226562 15.796875 -12.242188 15.703125 -12.265625 C 15.046875 -12.378906 14.53125 -12.65625 14.15625 -13.09375 C 13.789062 -13.53125 13.515625 -14.019531 13.328125 -14.5625 C 13.140625 -15.113281 12.972656 -15.585938 12.828125 -15.984375 C 12.617188 -16.609375 12.28125 -17.066406 11.8125 -17.359375 C 11.351562 -17.648438 10.816406 -17.804688 10.203125 -17.828125 C 9.671875 -17.828125 9.164062 -17.71875 8.6875 -17.5 C 8.207031 -17.28125 7.921875 -16.867188 7.828125 -16.265625 C 7.753906 -15.671875 7.90625 -15.175781 8.28125 -14.78125 C 8.65625 -14.382812 9.132812 -14.015625 9.71875 -13.671875 C 9.882812 -13.554688 10.160156 -13.390625 10.546875 -13.171875 C 10.929688 -12.960938 11.378906 -12.710938 11.890625 -12.421875 C 12.398438 -12.140625 12.914062 -11.863281 13.4375 -11.59375 C 13.96875 -11.320312 14.441406 -11.070312 14.859375 -10.84375 C 15.515625 -10.507812 16.210938 -10.101562 16.953125 -9.625 C 17.703125 -9.144531 18.347656 -8.578125 18.890625 -7.921875 C 19.441406 -7.273438 19.742188 -6.507812 19.796875 -5.625 Z M 19.796875 -5.625 "/></g></g></g></svg>